<svg width="1289" height="656" viewBox="0 0 1289 656" fill="none" xmlns="http://www.w3.org/2000/svg">
<ellipse cx="916" cy="555" rx="174" ry="12" fill="black" fill-opacity="0.5"/>
<path d="M924.686 414.091C923.377 414.284 921.837 414.386 921.525 415.945C921.284 417.153 921.375 418.396 922.099 419.444C923.336 421.234 925.174 422.279 927.388 421.91C929.367 421.581 932.086 419.787 932.086 417.559C932.086 416.303 931.181 415.039 930.433 414.099C929.631 413.092 928.938 412.032 927.928 411.208C926.566 410.097 925.465 409.988 924.24 411.298C923.57 412.015 922.936 412.993 922.643 413.932C922.498 414.395 922.605 414.766 922.605 415.23C922.605 415.848 922.49 414.936 922.605 414.63" stroke="#00ADB5" stroke-opacity="0.5" stroke-linecap="round" stroke-linejoin="round"/>
<path d="M931.469 417.63C932.583 418.619 933.527 419.513 935.497 419.561C936.876 419.595 938.254 419.251 939.546 418.88C940.472 418.615 943.438 417.21 941.034 417.097" stroke="#00ADB5" stroke-opacity="0.5" stroke-linecap="round" stroke-linejoin="round"/>
<path d="M942.955 409.003C941.485 410.626 939.457 413.807 940.219 416.245C940.487 417.102 940.876 417.679 941.379 418.412C942.393 419.886 943.963 419.426 945.388 419.041C946.42 418.762 947.647 417.883 948.043 416.883C948.588 415.503 947.451 413.345 946.501 412.395C945.44 411.334 944.6 410.043 943.418 409.114C943.103 408.867 942.864 408.599 942.454 408.69C941.993 408.793 941.803 409.234 942.416 409.234" stroke="#00ADB5" stroke-opacity="0.5" stroke-linecap="round" stroke-linejoin="round"/>
<path d="M1046.87 186.582C1045.56 186.776 1044.02 186.878 1043.71 188.437C1043.46 189.645 1043.56 190.888 1044.28 191.936C1045.52 193.726 1047.35 194.771 1049.57 194.402C1051.55 194.072 1054.27 192.279 1054.27 190.051C1054.27 188.795 1053.36 187.531 1052.61 186.591C1051.81 185.583 1051.12 184.524 1050.11 183.7C1048.75 182.589 1047.65 182.48 1046.42 183.79C1045.75 184.507 1045.12 185.485 1044.82 186.424C1044.68 186.887 1044.78 187.258 1044.78 187.722C1044.78 188.34 1044.67 187.428 1044.78 187.122" stroke="#00ADB5" stroke-opacity="0.5" stroke-linecap="round" stroke-linejoin="round"/>
<path d="M1053.65 190.122C1054.76 191.111 1055.71 192.005 1057.68 192.053C1059.06 192.087 1060.43 191.743 1061.73 191.372C1062.65 191.107 1065.62 189.702 1063.21 189.589" stroke="#00ADB5" stroke-opacity="0.5" stroke-linecap="round" stroke-linejoin="round"/>
<path d="M1065.14 181.495C1063.67 183.118 1061.64 186.299 1062.4 188.737C1062.67 189.594 1063.06 190.171 1063.56 190.903C1064.57 192.377 1066.14 191.918 1067.57 191.533C1068.6 191.254 1069.83 190.375 1070.22 189.375C1070.77 187.994 1069.63 185.837 1068.68 184.887C1067.62 183.826 1066.78 182.535 1065.6 181.606C1065.28 181.359 1065.04 181.091 1064.63 181.182C1064.17 181.285 1063.98 181.726 1064.6 181.726" stroke="#00ADB5" stroke-opacity="0.5" stroke-linecap="round" stroke-linejoin="round"/>
<path d="M934.125 139.395C941.672 135.8 947.772 129.855 953.907 124.249C958.728 119.843 963.784 115.49 969.105 111.688C970.155 110.937 971.638 109.428 973.057 110.071C974.464 110.709 975.274 112.445 976.386 113.473C979.123 116.005 981.585 119.099 983.835 122.074C986.313 125.349 982.598 127.162 980.301 129.306C977.692 131.742 975.2 134.254 972.351 136.403C969.642 138.446 967.466 141.262 964.986 143.575C961.207 147.1 957.672 150.853 953.904 154.381C951.661 156.481 949.087 158.196 946.927 160.371C946.17 161.133 945.47 162.141 944.597 162.775C943.896 163.285 942.926 161.325 942.676 160.956C940.695 158.026 937.626 156.021 935.686 152.957C934.467 151.03 933.646 148.652 932.186 146.892C931.489 146.052 929.747 144.161 930.51 142.934C931.29 141.681 933.503 141.081 934.71 140.184C935.651 139.484 936.795 138.621 937.866 138.134C938.644 137.781 939.408 137.154 940.104 136.672C941.936 135.402 939.995 135.945 938.756 136.417" stroke="#00ADB5" stroke-opacity="0.5" stroke-linecap="round" stroke-linejoin="round"/>
<path d="M935.278 145.148C939.872 147.992 943.993 152.108 947.58 156.167C947.67 156.27 948.543 156.878 948.41 157.103C948.153 157.538 945.171 155.575 944.887 155.379" stroke="#00ADB5" stroke-opacity="0.5" stroke-linecap="round" stroke-linejoin="round"/>
<path d="M939.832 141.036C943.557 142.102 945.777 144.132 948.784 146.303C950.124 147.27 951.488 148.143 952.69 149.281C953.255 149.815 953.657 150.518 954.179 151.094C954.894 151.883 951.974 150.178 951.63 149.981" stroke="#00ADB5" stroke-opacity="0.5" stroke-linecap="round" stroke-linejoin="round"/>
<path d="M945.244 137.848C947.851 140.201 950.471 142.521 953.159 144.778C954.18 145.636 955.34 146.423 956.222 147.434C957.788 149.227 955.737 146.9 955.041 146.243" stroke="#00ADB5" stroke-opacity="0.5" stroke-linecap="round" stroke-linejoin="round"/>
<path d="M948.896 135.606C950.83 136.781 952.849 137.92 954.486 139.505C955.158 140.156 955.715 140.922 956.433 141.524C957.317 142.266 958.092 143.132 958.982 143.853C960.25 144.88 960.441 145.18 958.935 143.891" stroke="#00ADB5" stroke-opacity="0.5" stroke-linecap="round" stroke-linejoin="round"/>
<path d="M953.604 132.154C955.737 133.824 957.712 135.519 959.495 137.555C960.285 138.457 960.922 139.498 961.924 140.19C962.843 140.824 963.486 141.007 962.411 139.977" stroke="#00ADB5" stroke-opacity="0.5" stroke-linecap="round" stroke-linejoin="round"/>
<path d="M958.137 128.637C960.015 130.048 961.866 131.336 963.367 133.154C964.053 133.986 964.595 134.942 965.362 135.709C966.92 137.268 965.849 136.482 964.722 135.424" stroke="#00ADB5" stroke-opacity="0.5" stroke-linecap="round" stroke-linejoin="round"/>
<path d="M962.317 124.987C964.954 127.509 967.162 130.463 969.803 132.954C971.582 134.632 969.034 131.944 968.617 131.466" stroke="#00ADB5" stroke-opacity="0.5" stroke-linecap="round" stroke-linejoin="round"/>
<path d="M967.421 122.085C969.641 121.179 971.943 120.099 973.135 117.884C973.464 117.274 973.888 116.742 974.023 116.054C974.209 115.109 974.172 115.515 973.472 116.126" stroke="#00ADB5" stroke-opacity="0.5" stroke-linecap="round" stroke-linejoin="round"/>
<path d="M970.994 125.133C972.754 123.5 974.721 121.716 976.01 119.644C976.653 118.61 977.878 117.348 976.165 118.843" stroke="#00ADB5" stroke-opacity="0.5" stroke-linecap="round" stroke-linejoin="round"/>
<path d="M976.635 128.555C978.238 126.813 979.665 125.192 981.141 123.371C981.617 122.782 983.07 122.018 981.322 122.485" stroke="#00ADB5" stroke-opacity="0.5" stroke-linecap="round" stroke-linejoin="round"/>
<path d="M975.36 127.674C977.038 126.236 978.935 124.562 980.265 122.747C980.62 122.262 980.893 121.723 981.218 121.219C981.762 120.376 981.796 120.661 980.971 120.748" stroke="#00ADB5" stroke-opacity="0.5" stroke-linecap="round" stroke-linejoin="round"/>
<path d="M939.808 148.053C948.168 144.657 950.231 135.44 957.043 130.228C957.872 129.594 958.545 128.889 959.512 128.45C960.158 128.157 960.956 128.016 961.544 127.641C961.903 127.411 964.882 125.135 962.812 126.076" stroke="#00ADB5" stroke-opacity="0.5" stroke-linecap="round" stroke-linejoin="round"/>
<path d="M935.915 145.588C936.854 144.447 937.687 143.471 938.877 142.646C939.072 142.51 939.373 142.488 939.534 142.307C939.852 141.949 940.334 141.425 940.456 140.964C940.939 139.145 943.297 139.481 944.55 138.569C945.741 137.702 946.888 136.823 948.103 135.966C949.441 135.022 950.06 134.194 951.135 132.984C952.122 131.872 953.081 130.748 954.126 129.696C954.981 128.835 956.324 128.052 956.868 126.95C957.482 125.707 959.052 124.284 960.465 124.514C960.95 124.594 964.515 126.66 962.185 125.339" stroke="#00ADB5" stroke-opacity="0.5" stroke-linecap="round" stroke-linejoin="round"/>
<path d="M943.48 150.033C949.763 146.72 953.249 139.495 957.492 134.037C959.055 132.027 961.288 130.691 962.924 128.716C963.624 127.871 965.169 126.974 963.372 126.989" stroke="#00ADB5" stroke-opacity="0.5" stroke-linecap="round" stroke-linejoin="round"/>
<path d="M945.723 152.08C951.416 148.58 955.06 142.069 959.202 136.91C961.086 134.562 962.905 132.166 964.812 129.837C965.682 128.776 967.198 128.113 965.252 129.2" stroke="#00ADB5" stroke-opacity="0.5" stroke-linecap="round" stroke-linejoin="round"/>
<path d="M947.966 155.732C951.518 152.268 954.386 148.53 957.292 144.523C959.059 142.087 960.587 139.348 962.662 137.155C963.853 135.896 964.769 134.422 965.85 133.088C966.286 132.55 966.586 131.924 967.034 131.391C968.042 130.19 967.339 131.276 966.637 131.928" stroke="#00ADB5" stroke-opacity="0.5" stroke-linecap="round" stroke-linejoin="round"/>
<path d="M948.801 157.25C950.569 155.518 953.159 153.852 954.338 151.605C954.766 150.79 955.825 148.821 956.568 148.322C957.551 147.662 958.019 146.259 958.733 145.377C959.478 144.458 960.207 143.561 961.015 142.687C961.772 141.867 962.015 140.428 962.952 139.723C963.997 138.937 964.505 137.72 965.339 136.782C966.06 135.97 967.433 135.129 968.328 134.508C968.824 134.165 969.17 133.696 969.732 133.441C970.872 132.923 970.132 133.188 969.089 133.149" stroke="#00ADB5" stroke-opacity="0.5" stroke-linecap="round" stroke-linejoin="round"/>
<path d="M967.278 122.734C968.74 123.119 970.543 123.384 971.876 124.181C972.736 124.695 973.485 125.211 971.919 124.275" stroke="#00ADB5" stroke-opacity="0.5" stroke-linecap="round" stroke-linejoin="round"/>
<path d="M968.796 120.293C970.882 120.838 972.357 121.449 974.057 122.558C975.17 123.283 974.991 123.082 973.833 122.384" stroke="#00ADB5" stroke-opacity="0.5" stroke-linecap="round" stroke-linejoin="round"/>
<path d="M971.327 117.83C973.118 118.837 974.856 119.982 976.708 120.859C977.797 121.375 977.226 121.339 976.385 120.933" stroke="#00ADB5" stroke-opacity="0.5" stroke-linecap="round" stroke-linejoin="round"/>
<path d="M972.768 115.862C974.651 116.719 976.388 117.573 978.122 118.652C978.913 119.144 978.195 119.176 977.595 118.778" stroke="#00ADB5" stroke-opacity="0.5" stroke-linecap="round" stroke-linejoin="round"/>
<path d="M968.202 121.876C969.625 120.184 971.052 118.581 972.348 116.847C972.716 116.355 974.958 113.612 973.989 115.015" stroke="#00ADB5" stroke-opacity="0.5" stroke-linecap="round" stroke-linejoin="round"/>
<path d="M969.697 124.846C971.548 123.209 974.216 121.027 974.814 118.581C974.99 117.862 975.371 117.143 975.93 116.647C976.497 116.145 977.09 115.919 976.243 116.765" stroke="#00ADB5" stroke-opacity="0.5" stroke-linecap="round" stroke-linejoin="round"/>
<path d="M968.212 124.791C970.186 122.664 971.874 121.235 972.989 118.616C973.279 117.935 973.611 117.372 974.086 116.836C974.59 116.269 975.313 115.738 974.34 116.753" stroke="#00ADB5" stroke-opacity="0.5" stroke-linecap="round" stroke-linejoin="round"/>
<path d="M975.547 125.838C976.456 126.414 977.368 126.948 978.313 127.428C978.703 127.626 978.22 127.243 978.054 127.18" stroke="#00ADB5" stroke-opacity="0.5" stroke-linecap="round" stroke-linejoin="round"/>
<path d="M977.319 122.99C977.38 123.042 980.954 126.105 980.32 125.422" stroke="#00ADB5" stroke-opacity="0.5" stroke-linecap="round" stroke-linejoin="round"/>
<path d="M979.442 121.88C980.23 122.638 982.645 124.857 981.795 124.168" stroke="#00ADB5" stroke-opacity="0.5" stroke-linecap="round" stroke-linejoin="round"/>
<path d="M974.491 127.047C975.798 125.831 978.663 123.42 979.365 121.55C979.642 120.813 980.909 119.866 979.717 120.879" stroke="#00ADB5" stroke-opacity="0.5" stroke-linecap="round" stroke-linejoin="round"/>
<path d="M974.656 127.41C974.78 127.51 977.279 130.201 977.812 128.896C978.084 128.23 978.438 127.362 979.105 126.995C980.276 126.351 980.492 124.322 981.69 123.778C983.05 123.16 982.923 122.125 981.657 121.758C981.159 121.613 981.552 120.633 981.035 120.71C980.562 120.781 980.312 120.606 979.783 120.703" stroke="#00ADB5" stroke-opacity="0.5" stroke-linecap="round" stroke-linejoin="round"/>
<path d="M967.113 122.371C967.97 124.009 968.132 124.602 969.515 125.285C969.888 125.47 970.376 125.214 970.659 125.358C971.219 125.642 972.327 125.648 972.746 125.132C973.587 124.093 973.897 123.423 975.185 122.791C975.999 122.393 976.653 121.452 977.029 120.673C977.442 119.816 978.187 119.171 978.624 118.311C978.81 117.945 977.309 117.002 977.295 116.368C977.292 116.188 975.51 116.183 975.213 116.033C974.854 115.85 974.689 115.593 974.517 115.214C974.265 114.659 973.819 115.348 973.142 115.4" stroke="#00ADB5" stroke-opacity="0.5" stroke-linecap="round" stroke-linejoin="round"/>
<path d="M937.434 143.147C939.458 143.916 941.224 144.908 943.046 146.006C944.629 146.96 946.417 147.467 947.989 148.391C949.108 149.049 950.27 150.551 951.096 151.537C951.371 151.866 951.577 152.173 951.772 152.544C952.22 153.394 951.754 151.339 951.707 151.114" stroke="#00ADB5" stroke-opacity="0.5" stroke-linecap="round" stroke-linejoin="round"/>
<path d="M956.982 127.701C957.544 128.291 959.817 131.545 959.368 129.099" stroke="#00ADB5" stroke-opacity="0.5" stroke-linecap="round" stroke-linejoin="round"/>
<path d="M961.661 353.572C961.902 354.811 962.514 355.616 962.989 356.744C963.312 357.511 963.916 358.106 964.253 358.859C964.616 359.672 965.161 360.628 965.667 361.352C966.102 361.972 966.386 362.56 966.935 363.109C967.903 364.077 968.636 365.232 969.61 366.187C971.025 367.575 973.421 369.386 975.482 369.272C976.144 369.235 976.877 369.44 977.527 369.342C978.084 369.258 978.761 369.23 979.319 369.326C980.236 369.485 981.232 369.325 982.109 369.515C982.583 369.618 983.099 369.468 983.578 369.557C984.2 369.672 984.929 369.701 985.562 369.701C987.636 369.701 989.705 369.688 991.774 369.426C992.895 369.283 994.005 369.655 995.115 369.458C996.156 369.272 997.543 369.464 998.523 369.035C999.727 368.508 1000.92 367.68 1001.85 366.75C1002.32 366.284 1002.67 365.727 1002.99 365.15C1003.4 364.393 1003.64 363.576 1004.05 362.821C1005.51 360.186 1006.33 357.253 1007.51 354.507C1007.79 353.859 1008.25 353.335 1008.58 352.737C1008.66 352.586 1008.7 352.393 1008.84 352.247C1009.35 351.704 1008.37 351.646 1007.92 351.441" stroke="#00ADB5" stroke-opacity="0.5" stroke-linecap="round" stroke-linejoin="round"/>
<path d="M961.43 353.687C962.46 352.341 963.333 351.351 964.829 350.59C966.081 349.952 967.38 349.195 968.512 348.362C970.251 347.084 972.645 346.514 974.762 346.129C977.067 345.71 979.335 345.22 981.681 345.22C982.406 345.22 983.124 345.438 983.85 345.45C984.719 345.465 985.59 345.492 986.455 345.566C987.783 345.679 989.145 345.652 990.474 345.681C992.329 345.721 994.105 346.681 995.959 346.83C997.063 346.918 998.349 347.083 999.422 347.383C999.824 347.496 1000.28 347.572 1000.66 347.754C1001.12 347.981 1001.45 348.365 1001.88 348.631C1003.26 349.492 1004.81 349.897 1006.31 350.551C1006.76 350.752 1007.55 351.095 1008.06 351.095C1008.76 351.095 1008.72 352.385 1008.72 351.095" stroke="#00ADB5" stroke-opacity="0.5" stroke-linecap="round" stroke-linejoin="round"/>
<path d="M1008.61 351.902C1007.75 353.047 1007.14 353.483 1005.93 354.151C1004.98 354.676 1003.93 355.048 1002.86 355.243C1001.86 355.425 1000.78 355.568 999.767 355.649C998.928 355.716 998.071 355.619 997.214 355.716C995.274 355.937 993.318 356.437 991.447 356.984C988.777 357.764 986.198 357.845 983.44 357.995C980.43 358.158 977.411 357.928 974.461 357.316C973.466 357.11 972.414 357.295 971.402 357.256C970.286 357.212 969.193 356.905 968.144 356.542C967.702 356.389 967.295 356.155 966.832 356.049C966.29 355.926 965.738 355.974 965.2 355.844C964.45 355.663 963.574 355.336 962.941 354.897C962.665 354.706 962.251 354.549 962.035 354.26C961.972 354.176 961.891 353.989 961.891 353.889C961.891 353.651 961.696 353.711 962.006 353.918" stroke="#00ADB5" stroke-opacity="0.5" stroke-linecap="round" stroke-linejoin="round"/>
<path d="M983.838 363.595C984.539 363.517 985.465 363.53 985.175 362.629C985.082 362.339 984.848 362.308 984.599 362.225C983.858 361.978 982.532 362.457 982.253 363.23C981.754 364.618 982.7 366.118 984.186 365.637C984.591 365.506 985.308 365.22 985.566 364.853C985.874 364.412 985.411 364.542 985.105 364.113" stroke="#00ADB5" stroke-opacity="0.5" stroke-linecap="round" stroke-linejoin="round"/>
<path d="M981.706 362.097C982.824 361.649 983.395 361.464 984.526 361.464C984.981 361.464 985.209 361.432 985.61 361.694C986.274 362.128 986.502 362.952 986.433 363.678C986.374 364.291 986.172 365.131 985.956 365.713C985.796 366.146 985.399 366.221 984.993 366.302C984.622 366.376 983.813 366.169 983.521 366.331C983.211 366.503 982.263 366.561 982.023 366.241C981.803 365.947 981.566 365.821 981.405 365.464C981.252 365.123 981.183 364.798 981.06 364.459C980.891 363.994 980.587 362.723 981.217 362.443C981.586 362.279 981.744 362.181 982.167 362.181C982.287 362.181 982.39 362.27 982.513 362.27C982.69 362.27 982.171 362.155 981.994 362.155" stroke="#00ADB5" stroke-opacity="0.5" stroke-linecap="round" stroke-linejoin="round"/>
<path d="M983.722 357.489C984.535 356.439 985.276 355.355 986.116 354.334C986.567 353.785 987.127 353.313 987.614 352.788C989.006 351.285 990.424 349.639 991.486 347.882C992.531 346.152 993.958 344.267 995.508 342.967C996.327 342.28 997.059 341.522 997.771 340.73C998.462 339.962 998.78 338.889 999.435 338.077C999.942 337.449 1003.26 333.174 1003.84 335.773C1004.07 336.795 1003.07 337.509 1002.44 338.135C1001.73 338.845 1001.02 339.747 1000.41 340.554C999.831 341.332 999.121 342.016 998.555 342.801C997.784 343.868 996.381 344.632 995.819 345.841C995.355 346.838 994.585 347.64 994.007 348.564C993.207 349.845 992.269 350.915 991.326 352.087C990.578 353.016 989.407 353.78 988.878 354.839C988.435 355.724 987.651 356.097 986.935 356.67C986.624 356.919 986.245 357.058 985.969 357.403C985.877 357.518 985.712 357.65 985.626 357.521C985.577 357.448 985.39 357.613 985.425 357.694C985.548 357.981 985.249 357.005 985.22 356.913" stroke="#00ADB5" stroke-opacity="0.5" stroke-linecap="round" stroke-linejoin="round"/>
<path d="M983.261 357.777C983.482 357.889 984.874 358.946 984.874 358.094C984.874 357.836 985.206 357.406 985.322 357.144C985.411 356.945 984.615 357.135 984.497 357.288C984.342 357.486 984.042 357.648 984.529 357.662C984.903 357.673 985.195 357.512 985.479 357.291C985.561 357.227 986.66 357.401 985.681 357.374C985.16 357.359 984.654 357.374 984.154 357.374C983.722 357.374 984.598 357.259 984.724 357.259C984.825 357.259 983.994 357.753 983.85 357.592C983.815 357.552 983.755 357.444 983.895 357.374" stroke="#00ADB5" stroke-opacity="0.5" stroke-linecap="round" stroke-linejoin="round"/>
<path d="M964.944 353.515C965.009 353.549 967.067 354.627 967.075 354.494C967.085 354.333 966.97 354.192 967.05 354.033C967.398 353.336 967.849 353.671 968.448 353.94C968.916 354.151 968.206 351.82 969.616 352.804C970.345 353.313 970.539 353.232 970.419 352.379C970.329 351.733 970.552 351.731 971.107 351.799C971.485 351.846 971.756 351.928 971.971 351.569C972.233 351.133 972.528 350.885 973.063 351.073C973.506 351.229 973.9 351.668 974.205 351.108C974.339 350.862 974.226 350.125 974.65 350.267C974.916 350.355 975.266 350.702 975.568 350.593C975.798 350.51 975.974 349.799 976.234 349.911C976.505 350.029 976.781 350.543 977.124 350.42C977.289 350.361 977.595 349.821 977.271 349.886" stroke="#00ADB5" stroke-opacity="0.5" stroke-linecap="round" stroke-linejoin="round"/>
<path d="M973.066 352.478C973.78 353.059 976.454 356.162 977.239 353.844C977.38 353.429 977.402 352.607 977.796 353.287C978.12 353.848 978.609 354.237 979.14 353.707C979.492 353.355 979.648 352.758 980.151 352.574C980.613 352.405 980.951 353.273 981.335 352.766C981.645 352.357 981.495 351.654 981.041 351.409C980.892 351.328 980.85 351.606 980.785 351.671" stroke="#00ADB5" stroke-opacity="0.5" stroke-linecap="round" stroke-linejoin="round"/>
<path d="M979.229 348.907C980.342 348.715 981.743 348.326 982.589 349.323C982.982 349.784 982.944 350.374 982.685 350.897C982.496 351.279 981.987 351.47 981.661 351.095C981.395 350.788 981.945 350.281 982.141 350.094C982.816 349.451 983.815 350.48 984.026 351.179C984.203 351.762 982.608 353.114 982.801 352.535" stroke="#00ADB5" stroke-opacity="0.5" stroke-linecap="round" stroke-linejoin="round"/>
<path d="M997.95 350.865C998.28 350.751 1000.41 350.067 999.998 351.198C999.789 351.778 998.987 352.089 998.462 352.279C998.213 352.369 997.571 352.354 997.988 351.991C998.349 351.678 998.858 351.53 999.332 351.569C1001.18 351.719 998.596 353.843 998.065 354.136C997.034 354.704 995.631 355.303 994.551 354.609" stroke="#00ADB5" stroke-opacity="0.5" stroke-linecap="round" stroke-linejoin="round"/>
<path d="M986.602 347.466C987.041 348.18 987.568 348.896 987.943 349.646C988.072 349.904 987.514 349.243 987.383 348.987C987.348 348.919 987.108 348.162 987.085 348.167C986.805 348.23 986.739 349.514 986.663 349.751C986.304 350.873 985.417 350.443 984.548 350.359C983.495 350.258 983.024 351.296 982.442 351.959C981.976 352.49 981.793 352.653 982.109 353.284C982.365 353.795 982.471 354.291 982.109 354.753C981.827 355.114 981.474 355.342 981.133 355.64C980.821 355.912 981.269 355.867 981.21 355.704C981.05 355.256 980.064 355.349 979.741 355.371C978.542 355.45 977.321 355.149 976.144 355.224C975.519 355.263 974.93 355.612 974.311 355.704C973.681 355.797 974.513 356.343 974.749 356.5C975.155 356.771 973.955 355.925 973.514 355.716C972.774 355.366 972.092 355.096 971.709 354.321C971.325 353.545 970.988 353.016 970.339 352.446C970.116 352.249 970.089 351.951 970.198 351.684C970.451 351.067 971.012 350.565 971.568 350.231" stroke="#00ADB5" stroke-opacity="0.5" stroke-linecap="round" stroke-linejoin="round"/>
<path d="M986.487 349.771C985.043 348.763 983.852 348.329 982.154 348.1C981.557 348.02 980.921 347.607 980.532 347.15C980.186 346.744 980.382 346.852 979.975 347.402C979.419 348.155 979.006 347.48 978.295 347.678C977.206 347.981 976.271 348.994 975.165 349.182C974.862 349.233 974.935 348.727 974.557 348.945C973.92 349.312 973.433 349.66 972.688 349.777C972.238 349.848 971.384 350.144 971.453 350.692" stroke="#00ADB5" stroke-opacity="0.5" stroke-linecap="round" stroke-linejoin="round"/>
<path d="M996.279 349.771C997.673 349.905 999.084 349.888 1000.47 350.036C1000.96 350.088 1001.21 350.286 1001.55 350.606C1001.86 350.894 1002.35 351.574 1002.79 351.611C1003.43 351.664 1003.76 351.398 1004.36 351.211C1004.72 351.098 1005.87 351.211 1005.5 351.211" stroke="#00ADB5" stroke-opacity="0.5" stroke-linecap="round" stroke-linejoin="round"/>
<path d="M995.243 351.326C993.745 352.313 992.945 353.81 991.342 354.708C991.024 354.886 990.053 355.231 990.126 355.816C990.179 356.239 993.424 354.914 993.918 354.667" stroke="#00ADB5" stroke-opacity="0.5" stroke-linecap="round" stroke-linejoin="round"/>
<path d="M1000.83 352.708C1001.64 353.314 1002.35 354.181 1003.36 353.873C1003.64 353.79 1004.22 353.757 1004.4 353.572" stroke="#00ADB5" stroke-opacity="0.5" stroke-linecap="round" stroke-linejoin="round"/>
<path d="M1202.13 327.597C1197.93 328.404 1194.87 329.619 1192.2 333.047C1190.51 335.219 1190.88 338.638 1191.99 340.941C1193.81 344.736 1198.3 346.879 1202.34 347.065C1207.06 347.281 1213.61 345.896 1214.58 340.275C1215.09 337.262 1212.21 334.413 1210.87 331.942C1209.77 329.931 1208.12 327.221 1205.81 326.371C1204.87 326.024 1202.68 326.144 1202 327.082C1201.69 327.501 1201.29 327.944 1201.07 328.414C1200.89 328.796 1201.09 327.444 1201.04 327.052" stroke="#00ADB5" stroke-opacity="0.5" stroke-linecap="round" stroke-linejoin="round"/>
<path d="M1203.9 337.951C1202.77 338.535 1200.93 338.921 1201.92 340.199C1202.15 340.491 1202.47 340.475 1202.74 340.199C1202.98 339.964 1204.17 338.728 1203.29 338.436C1201.5 337.84 1202.16 341.407 1203.43 339.829C1204.12 338.981 1203.16 338.146 1202.3 338.663C1201.27 339.278 1202.08 340.353 1202.89 339.42C1203.49 338.716 1203.01 338.177 1202.35 338.837C1201.76 339.428 1202.36 340.37 1202.94 339.571C1203.54 338.752 1202.86 338.058 1202.14 338.776C1201.31 339.608 1202.21 339.521 1202.8 338.973C1203.39 338.421 1202.34 338.502 1202 338.935C1201.2 339.941 1202.45 339.798 1202.65 338.935C1202.94 337.668 1201.63 340.58 1202.27 338.36" stroke="#00ADB5" stroke-opacity="0.5" stroke-linecap="round" stroke-linejoin="round"/>
<path d="M1199.27 333.728C1200.48 335.325 1201.72 336.839 1202.74 338.436C1203.02 338.878 1202.79 339.322 1202.95 339.314C1203.52 339.282 1204.11 339.178 1204.72 339.178C1206.12 339.178 1207.22 338.496 1208.57 338.496C1210.2 338.496 1212.59 338.073 1209.9 336.725" stroke="#00ADB5" stroke-opacity="0.5" stroke-linecap="round" stroke-linejoin="round"/>
<path d="M1197.91 327.461C1197.65 326.173 1196.41 323.05 1198.73 323.381C1199.56 323.5 1200.11 324.359 1200.6 324.902C1201.87 326.315 1201.74 328.021 1199.68 328.142C1199.14 328.174 1198.38 329.243 1197.77 328.483C1197.08 327.621 1197.79 327.679 1197.91 326.643C1197.99 325.966 1197.55 326.022 1197.36 325.356C1197.21 324.846 1197.51 324.287 1197.64 323.918" stroke="#00ADB5" stroke-opacity="0.5" stroke-linecap="round" stroke-linejoin="round"/>
<path d="M1198.73 325.962C1198.71 326.287 1198.21 329.22 1199.28 328.74C1199.64 328.579 1199.94 328.346 1200.09 327.975C1200.23 327.617 1200.08 327.402 1199.92 327.052C1199.52 326.149 1198.34 324.745 1198.7 326.779C1198.92 328.063 1200.36 327.763 1200.47 326.537C1200.55 325.601 1199.37 324.347 1198.62 325.417C1198.09 326.174 1199.03 327.842 1199.59 326.673C1199.87 326.08 1199.2 324.571 1198.48 325.311C1197.75 326.069 1198.85 327.669 1199.57 327.022C1200.29 326.382 1199.8 324.43 1199.03 325.175C1198.32 325.856 1199.38 327.212 1199.92 326.174C1200.52 325.016 1199.2 324.143 1198.79 325.356C1198.42 326.44 1199.57 327.604 1199.83 326.128C1200.03 325.005 1197.97 324.408 1197.97 325.75C1197.97 326.987 1199.07 326.86 1199.07 325.735C1199.07 324.562 1197.89 324.826 1198.38 325.811C1198.88 326.795 1199.54 325.048 1198.98 324.494C1198.34 323.847 1197.48 324.847 1198.24 325.47C1198.76 325.895 1199.47 324.132 1198.6 323.805C1197.84 323.522 1198.26 325.062 1198.52 324.713C1198.93 324.173 1198.31 323.811 1198.73 323.918C1199.11 324.013 1200.03 324.214 1200.28 324.547C1200.49 324.808 1201.31 326.265 1201.31 326.643C1201.31 327.8 1199.54 328.424 1198.53 328.134C1197.8 327.926 1197.58 328.441 1197.84 328.271C1198.46 327.857 1198.59 326.779 1198.59 327.188" stroke="#00ADB5" stroke-opacity="0.5" stroke-linecap="round" stroke-linejoin="round"/>
<path d="M1198.59 346.943C1197.89 348.432 1197.27 349.927 1196.44 351.334C1196.25 351.65 1195.91 352.297 1195.86 352.666C1195.75 353.66 1196.75 350.295 1196.95 349.805" stroke="#00ADB5" stroke-opacity="0.5" stroke-linecap="round" stroke-linejoin="round"/>
<path d="M1212.35 344.082C1214.08 346.261 1215.98 347.815 1217.32 350.206C1217.46 350.441 1217.68 350.628 1217.87 350.811C1218.48 351.423 1216.73 349.505 1216.16 348.851" stroke="#00ADB5" stroke-opacity="0.5" stroke-linecap="round" stroke-linejoin="round"/>
<path d="M1098.07 217.051C1099.14 221.123 1103.31 236.26 1104.31 241.791C1107.05 257.019 1102.75 236.24 1102.73 242.966" stroke="#00ADB5" stroke-opacity="0.5" stroke-width="2" stroke-linecap="round" stroke-linejoin="round"/>
<path d="M1090.75 223.634C1090.39 217.438 1089 208.838 1097.68 209.723C1101.77 210.14 1106.27 212.566 1108.82 215.812C1112.76 220.828 1110.68 228.604 1106.43 232.596C1104.16 234.72 1101.97 235.785 1099 236.588C1093.98 237.949 1097.94 230.976 1098.75 229.064" stroke="#00ADB5" stroke-opacity="0.5" stroke-width="2" stroke-linecap="round" stroke-linejoin="round"/>
<path d="M1113.35 231.207C1121.98 230.745 1129.93 229.046 1133.02 238.408C1134.81 243.849 1137 250.46 1135.5 256.194C1134.15 261.375 1131.24 264.614 1125.92 262.407C1118.31 259.253 1118.32 253.315 1122.46 247.393C1123.98 245.213 1129.82 240.847 1129.83 238.298" stroke="#00ADB5" stroke-opacity="0.5" stroke-width="2" stroke-linecap="round" stroke-linejoin="round"/>
<path d="M1128.91 221.104C1128.62 223.375 1128.61 239.444 1124.26 239.598C1123.45 239.627 1122.76 240.051 1122.05 240.406C1119.31 241.769 1120.98 240.542 1122 239.123C1124.32 235.909 1129.01 237.097 1131.35 232.831C1133.9 228.199 1135.08 225.921 1131.42 222.338C1128.86 219.826 1129.99 215.555 1127.97 221.573" stroke="#00ADB5" stroke-opacity="0.5" stroke-width="2" stroke-linecap="round" stroke-linejoin="round"/>
<path d="M1141.65 206.522C1144.99 214.033 1148.04 223.815 1153.39 230.354C1154.81 232.082 1155.6 230.578 1155.58 229.232C1155.55 227.532 1155.07 225.816 1154.58 224.206" stroke="#00ADB5" stroke-opacity="0.5" stroke-width="2" stroke-linecap="round" stroke-linejoin="round"/>
<path d="M1131.97 226.055C1137.26 223.972 1150.26 221.864 1152.47 215.253" stroke="#00ADB5" stroke-opacity="0.5" stroke-width="2" stroke-linecap="round" stroke-linejoin="round"/>
<path d="M1148.25 206.768C1171.19 246.902 1148.84 218.694 1160.5 211.353C1167.58 206.898 1168.17 227.897 1170.13 218.814" stroke="#00ADB5" stroke-opacity="0.5" stroke-width="2" stroke-linecap="round" stroke-linejoin="round"/>
<path d="M1168.74 205.387C1169.57 207.876 1172.37 224.307 1178.19 220.554C1180.79 218.875 1183.82 215.675 1184.33 212.529C1184.86 209.154 1182.76 200.579 1177.98 201.502C1175.81 201.924 1172.16 202.025 1170.74 204.095C1169.37 206.095 1168.5 210.779 1170.15 205.86" stroke="#00ADB5" stroke-opacity="0.5" stroke-width="2" stroke-linecap="round" stroke-linejoin="round"/>
<path d="M1185 201.409C1191.5 197.231 1199.15 195.86 1200.14 205.698C1200.27 206.933 1200.29 208.488 1200.86 209.625C1201.51 210.943 1200.16 206.403 1198.89 205.67" stroke="#00ADB5" stroke-opacity="0.5" stroke-width="2" stroke-linecap="round" stroke-linejoin="round"/>
<path d="M1184.52 205.176C1184.81 210.319 1184.08 217.286 1186.48 222.111C1186.56 222.275 1187.14 223.534 1186.85 222.844C1186.28 221.479 1186.04 220.553 1184.97 219.073" stroke="#00ADB5" stroke-opacity="0.5" stroke-width="2" stroke-linecap="round" stroke-linejoin="round"/>
<path d="M1019.83 251.734C1018.93 260.093 1020.5 285.829 1006.31 284.227C1003.35 283.894 1000.66 283.399 999.251 280.61C997.778 277.69 996.56 275.149 996.414 271.832C996.234 267.758 997.856 265.835 1001.15 263.996C1002.31 263.352 999.823 265.962 999.603 266.215C998.155 267.878 1003.07 265.851 1004.95 265.435" stroke="#00ADB5" stroke-opacity="0.5" stroke-width="2" stroke-linecap="round" stroke-linejoin="round"/>
<path d="M1038.06 255.75C1030.88 256.422 1020.74 257.783 1019.58 266.767C1018.96 271.64 1026.2 272.232 1029.35 273.892C1034.75 276.743 1038.85 286.043 1032.79 290.136C1028.57 292.982 1025.39 291.469 1021.29 291.753C1017.12 292.042 1020.02 290.507 1022.49 290.086" stroke="#00ADB5" stroke-opacity="0.5" stroke-width="2" stroke-linecap="round" stroke-linejoin="round"/>
<path d="M1076.97 34.5733C1076.4 40.3405 1076.05 46.1668 1075.34 51.9203C1075.27 52.4739 1074.72 54.6592 1075.37 52.8924C1075.84 51.6006 1075.69 50.2544 1076.44 49.0294C1077.48 47.3421 1082.19 40.9151 1084.41 41.5652C1088.84 42.8682 1084.36 51.0911 1083.1 53.4474C1082.66 54.26 1081.47 56.0228 1082.08 56.9341C1082.91 58.149 1084.43 53.6592 1084.49 53.5218" stroke="#00ADB5" stroke-opacity="0.5" stroke-width="2" stroke-linecap="round" stroke-linejoin="round"/>
<path d="M1094.48 38.3603C1093.96 40.9369 1089.54 53.655 1093.8 55.7616C1095 56.3561 1097.65 55.2339 1098.47 54.2665C1099.33 53.2591 1098.88 51.7166 1098.79 50.5474" stroke="#00ADB5" stroke-opacity="0.5" stroke-width="2" stroke-linecap="round" stroke-linejoin="round"/>
<path d="M1085.73 38.6382C1090.4 40.0256 1095.2 40.9493 1099.83 42.3807C1100.93 42.7186 1101.34 42.8716 1101.93 43.8477C1102.84 45.366 1100.41 43.9791 1099.99 43.5192" stroke="#00ADB5" stroke-opacity="0.5" stroke-width="2" stroke-linecap="round" stroke-linejoin="round"/>
<path d="M1106.83 47.6529C1105.76 50.8857 1104.75 54.1591 1103.53 57.3404C1103.29 57.9729 1103.25 58.2042 1103.12 57.7211C1102.99 57.2557 1102.87 56.9815 1103.08 56.49C1104.18 53.878 1106.74 50.1241 1109.16 48.6652C1111.77 47.0897 1110.34 52.3816 1109.99 53.4529C1109.6 54.656 1108.54 57.9535 1109.74 54.7627C1110.46 52.8638 1112.11 48.1445 1114.89 48.8314C1116.57 49.2474 1116.18 51.5219 1115.88 52.7246C1115.34 54.9425 1114.79 57.1455 1114.24 59.3708C1113.44 62.6225 1113.87 60.8665 1114.46 58.4903" stroke="#00ADB5" stroke-opacity="0.5" stroke-width="2" stroke-linecap="round" stroke-linejoin="round"/>
<path d="M1127.57 40.5746C1125.89 46.6026 1123.84 52.6134 1122.39 58.7041C1122.22 59.4184 1121.85 62.0633 1122.99 62.3784C1124.07 62.6777 1128.34 60.1129 1127.3 59.2237" stroke="#00ADB5" stroke-opacity="0.5" stroke-width="2" stroke-linecap="round" stroke-linejoin="round"/>
<path d="M837.427 286.46C833.464 293.989 829.513 301.525 825.539 309.048C824.407 311.193 822.171 317.753 821.894 315.344C821.519 312.077 823.515 307.504 824.362 304.443C825.557 300.122 827.991 291.491 834.056 291.522C838.634 291.547 843.781 298.26 844.491 302.449C844.992 305.406 846.45 302.066 848.428 301.174" stroke="#00ADB5" stroke-opacity="0.5" stroke-width="2" stroke-linecap="round" stroke-linejoin="round"/>
<path d="M849.712 310.581C852.376 316.775 856.302 327.246 864.386 321.485C868.101 318.838 866.255 314.308 862.588 312.869C853.601 309.343 842.276 319.189 840.035 327.282C837.794 335.374 846.64 337.855 852.725 338.654C856.092 339.096 855.337 336.218 858.234 335.216" stroke="#00ADB5" stroke-opacity="0.5" stroke-width="2" stroke-linecap="round" stroke-linejoin="round"/>
<path d="M872.095 331.997C865.113 329.082 855.864 326.483 851.93 335.405C850.033 339.705 858.52 340.21 861.038 340.091C865.846 339.865 876.552 328.735 872.945 331.922C869.779 334.719 866.576 338.02 865.274 342.15C864.434 344.818 865.399 350.711 868.492 346.641" stroke="#00ADB5" stroke-opacity="0.5" stroke-width="2" stroke-linecap="round" stroke-linejoin="round"/>
<path d="M899.244 337.579C889.111 338.551 877.102 339.06 873.507 350.445C871.74 356.041 875.886 359.933 880.882 361.575C884.373 362.723 887.932 360.231 890.05 357.703" stroke="#00ADB5" stroke-opacity="0.5" stroke-width="2" stroke-linecap="round" stroke-linejoin="round"/>
<path d="M908.448 339.123C907.892 339.799 882.931 367.004 894.829 367.214C898.124 367.273 901.505 365.356 903.773 363.201" stroke="#00ADB5" stroke-opacity="0.5" stroke-width="2" stroke-linecap="round" stroke-linejoin="round"/>
<path d="M887.305 344.073C892.098 347.378 896.823 350.878 902.08 353.432C903.445 354.096 905.72 354.412 906.66 355.788C907.188 356.561 906.358 354.725 906.266 354.458" stroke="#00ADB5" stroke-opacity="0.5" stroke-width="2" stroke-linecap="round" stroke-linejoin="round"/>
<path d="M833.848 126.255C837.87 133.133 850.642 153.199 845.457 147.15C842.143 143.283 839.625 138.151 837.524 133.576C835.319 128.776 833.248 120.211 841.651 120.645C848.864 121.019 851.743 128.384 853.012 134.421C853.571 137.084 853.714 139.153 854.909 141.575C856.13 144.052 856.198 134.509 856.662 132.033" stroke="#00ADB5" stroke-opacity="0.5" stroke-width="2" stroke-linecap="round" stroke-linejoin="round"/>
<path d="M859.833 112.267C860.057 113.307 863.533 137.092 868.579 132.518C870.704 130.592 871.171 125.844 871.444 123.243C872.296 115.114 868.862 114.11 863.155 112.39C860.433 111.569 859.875 111.606 859.127 114.409C857.592 120.164 860.012 118.547 863.113 115.347" stroke="#00ADB5" stroke-opacity="0.5" stroke-width="2" stroke-linecap="round" stroke-linejoin="round"/>
<path d="M881.773 105.557C878.97 110.282 875.395 115.84 877.367 121.627C878.185 124.028 880.088 123.393 881.421 122.042C883.524 119.909 884.621 116.404 884.504 113.475C884.28 107.861 880.763 103.057 877.072 99.0676C876.561 98.5145 871.9 94.6725 872.813 97.9712C874.452 103.896 879.015 109.595 882.194 114.745C887.434 123.232 889.041 119.936 891.395 111.969" stroke="#00ADB5" stroke-opacity="0.5" stroke-width="2" stroke-linecap="round" stroke-linejoin="round"/>
<path d="M891.893 107.026C893.633 108.649 907.363 118.456 907.789 109.757C907.827 108.968 906.821 108.721 906.49 108.049C905.635 106.316 904.219 105.173 903.449 104.264" stroke="#00ADB5" stroke-opacity="0.5" stroke-width="2" stroke-linecap="round" stroke-linejoin="round"/>
<path d="M893.038 112.921C887.602 105.782 880.008 98.3595 887.792 91.302C891.072 88.3282 897.878 90.6797 897.7 95.6483C897.617 97.9624 897.129 103.685 893.805 104.289C892.048 104.608 891.238 103.458 892.863 101.85" stroke="#00ADB5" stroke-opacity="0.5" stroke-width="2" stroke-linecap="round" stroke-linejoin="round"/>
<path d="M905.448 83.3129C908.963 85.5493 934.008 100.35 920.89 106.819C918.845 107.828 917.046 105.478 915.959 103.966C913.509 100.558 920.647 95.7227 920.944 92.1126" stroke="#00ADB5" stroke-opacity="0.5" stroke-width="2" stroke-linecap="round" stroke-linejoin="round"/>
<path d="M926.005 71.4142C923.959 73.0849 912.225 83.4619 921.452 85.4683C926.549 86.5765 931.366 81.4977 935.24 78.9626C941.48 74.8787 942.798 82.7372 941.083 87.1727C940.033 89.8891 931.266 98.7785 933.665 91.7115" stroke="#00ADB5" stroke-opacity="0.5" stroke-width="2" stroke-linecap="round" stroke-linejoin="round"/>
<path d="M995.261 457.65C987.455 461.578 977.226 468.742 985.665 478.247C989.713 482.807 997.186 480.939 1002.52 480.412C1004.02 480.264 1008.15 481.705 1007.02 480.705C1004.59 478.542 1002.84 478.681 1002.11 475.029" stroke="#00ADB5" stroke-opacity="0.5" stroke-width="2" stroke-linecap="round" stroke-linejoin="round"/>
<path d="M1018.43 455.016C1018.43 460.771 1018.38 464.891 1024.29 467.129C1026.84 468.096 1028.44 468.983 1029.11 471.84C1029.88 475.069 1027.62 479.747 1024.96 481.553C1021.66 483.786 1017.52 484.565 1013.81 483.045C1010.63 481.743 1014.15 480.204 1015.8 478.715" stroke="#00ADB5" stroke-opacity="0.5" stroke-width="2" stroke-linecap="round" stroke-linejoin="round"/>
<path d="M1044.24 448.697C1043.2 452.71 1038.53 463.443 1042.69 467.597C1044.36 469.274 1047.61 468.343 1049.68 468.826C1051.74 469.307 1053.5 470.882 1054.77 472.513C1056.78 475.094 1054.87 479.006 1052.55 480.822C1048.95 483.639 1043.81 482.402 1039.62 482.402C1037.33 482.402 1038.89 482.24 1040.03 480.822" stroke="#00ADB5" stroke-opacity="0.5" stroke-width="2" stroke-linecap="round" stroke-linejoin="round"/>
<path d="M1035.16 398.752C1039.22 397.204 1046.74 394.74 1050.67 391.964C1054.81 389.034 1050.47 388.192 1048.27 388.892C1044.53 390.079 1042.28 393.99 1041.01 397.436C1037.68 406.507 1048.28 416.761 1057.19 415.722C1065.43 414.761 1066.57 410.729 1067.81 404.545" stroke="#00ADB5" stroke-opacity="0.5" stroke-width="2" stroke-linecap="round" stroke-linejoin="round"/>
<path d="M1073.08 394.012C1072.16 395.515 1063.39 413.561 1060.97 405.072" stroke="#00ADB5" stroke-opacity="0.5" stroke-width="2" stroke-linecap="round" stroke-linejoin="round"/>
<path d="M1056.75 394.539C1060.45 399.482 1069.38 417.156 1078.34 416.658C1079.64 416.586 1077.92 411.583 1077.82 410.865" stroke="#00ADB5" stroke-opacity="0.5" stroke-width="2" stroke-linecap="round" stroke-linejoin="round"/>
<path d="M1080.98 394.539C1083.02 406.506 1087.11 442.674 1084.78 430.76C1083.58 424.617 1072.6 391.374 1082.26 392.754C1086.45 393.353 1097.15 399.466 1094.35 405.072C1092.77 408.224 1083.01 409.324 1087.3 407.178" stroke="#00ADB5" stroke-opacity="0.5" stroke-width="2" stroke-linecap="round" stroke-linejoin="round"/>
<path d="M1100.99 402.965C1102.29 409.736 1103.54 416.502 1104.68 423.299C1104.87 424.463 1104.61 423.504 1104.27 422.861C1102.11 418.821 1099.16 411.623 1099.26 407.091C1099.36 402.797 1105.27 399.869 1108.36 402.965" stroke="#00ADB5" stroke-opacity="0.5" stroke-width="2" stroke-linecap="round" stroke-linejoin="round"/>
<path d="M1117.84 410.865C1117.71 415.821 1121.3 433.172 1129.84 428.127C1131.06 427.404 1134.08 425.638 1134.17 424.031C1134.22 423.174 1132.66 422.978 1132.06 422.978C1130.5 422.978 1130.11 421.037 1129.43 419.818" stroke="#00ADB5" stroke-opacity="0.5" stroke-width="2" stroke-linecap="round" stroke-linejoin="round"/>
<path d="M1115.21 412.445C1119.82 407.673 1125.01 401.099 1129.11 409.607C1130.31 412.098 1129.89 415.099 1128.9 417.594C1127.31 421.625 1121.6 423.215 1123.11 417.185" stroke="#00ADB5" stroke-opacity="0.5" stroke-width="2" stroke-linecap="round" stroke-linejoin="round"/>
<path d="M1143.65 402.965C1147.26 408.733 1161.86 424.281 1152.28 431.375C1149.21 433.644 1147.21 433.634 1143.76 433.51C1138.89 433.336 1141.47 432.102 1143.12 428.244" stroke="#00ADB5" stroke-opacity="0.5" stroke-width="2" stroke-linecap="round" stroke-linejoin="round"/>
<path d="M1165.77 400.859C1164.68 402.178 1150.59 415.792 1159.15 417.243C1162.31 417.778 1165.21 415.867 1168.11 417.799C1173.34 421.285 1172.1 426.01 1167.29 428.975C1164.88 430.458 1162.2 431.235 1159.68 432.457C1158.26 433.148 1159.77 431.147 1159.97 430.351" stroke="#00ADB5" stroke-opacity="0.5" stroke-width="2" stroke-linecap="round" stroke-linejoin="round"/>
<path d="M1153.65 395.066C1152.43 395.964 1139.26 403.271 1141.13 407.705C1143.49 413.299 1144.27 406.413 1144.7 404.019" stroke="#00ADB5" stroke-opacity="0.5" stroke-width="2" stroke-linecap="round" stroke-linejoin="round"/>
<path d="M829.971 222.793C832.317 217.263 831.356 212.444 831.356 206.712C831.356 205.597 831.154 202.201 832.325 201.593C834.173 200.634 835.9 199.994 838.08 199.994C839.53 199.994 840.986 200.036 842.435 199.994C843.884 199.953 845.288 199.363 846.72 199.188C849.386 198.861 852.159 199.316 854.791 199.316C856.881 199.316 859.043 199.587 861.054 199.587C861.411 199.587 862.866 199.757 863.1 199.964C863.818 200.597 863.612 201.612 864.178 202.166" stroke="#00ADB5" stroke-opacity="0.5" stroke-linecap="round" stroke-linejoin="round"/>
<path d="M864.04 202.656C864.131 204.288 864.165 206.578 864.837 208.173C865.272 209.206 864.925 210.582 865.013 211.683C865.182 213.795 864.867 215.855 864.867 217.905C864.867 220.654 865.005 223.369 865.005 226.104C865.005 228.451 862.712 228.058 860.898 227.728C859.331 227.443 857.228 228.015 855.595 228.035C852.445 228.074 849.28 228.311 846.124 228.311C843.489 228.311 841.532 227.545 839.105 226.625C837.809 226.133 837.026 226.242 835.634 226.242C834.316 226.242 833.231 226.036 831.91 226.449C831.137 226.69 829.752 226.482 829.312 225.69C828.785 224.741 829.833 224.329 829.833 223.552C829.833 222.9 829.751 221.034 829.971 222.794" stroke="#00ADB5" stroke-opacity="0.5" stroke-linecap="round" stroke-linejoin="round"/>
<path d="M845.695 206.242C845.695 206.242 846.247 206.518 846.799 207.07C847.35 207.483 848.512 207.277 849.488 207.277C850.002 207.277 850.545 206.876 851.005 206.671C851.939 206.256 851.382 207.037 851.159 207.483C850.911 207.978 851.194 208.898 851.641 209.208C852.38 209.719 853.111 209.278 853.833 208.916C854.133 208.766 854.051 208.697 854.143 208.901C854.269 209.178 854.247 209.58 854.247 209.882C854.247 210.569 854.202 211.712 853.833 212.311C853.348 213.099 852.858 213.609 852.078 214.188C851.308 214.761 850.29 215.759 849.266 215.759C847.265 215.759 845.141 215.323 844.14 213.376C843.715 212.551 842.937 211.875 842.937 210.932C842.937 210.144 842.676 209.201 842.937 208.449C843.252 207.537 844.04 206.671 843.764 206.671C843.905 206.711 845.143 205.966 845.695 206.242Z" stroke="#00ADB5" stroke-opacity="0.5" stroke-linecap="round" stroke-linejoin="round"/>
<path d="M847.971 205.759C848.747 205.472 850.519 204.87 850.936 203.932C851.259 203.206 850.193 203.07 849.626 203.07C848.938 203.07 848.123 204.02 847.94 204.621C847.839 204.956 847.742 205.298 847.642 205.637C847.593 205.8 847.658 205.918 847.691 206.07C847.717 206.185 848.769 205.632 848.73 205.474" stroke="#00ADB5" stroke-opacity="0.5" stroke-linecap="round" stroke-linejoin="round"/>
<path d="M861.908 221.273L831.37 221.944C828.139 222.015 825.557 224.654 825.557 227.885C825.557 231.167 828.218 233.828 831.5 233.828H862.04C865.353 233.828 868.04 231.142 868.04 227.828V227.272C868.04 223.906 865.272 221.199 861.908 221.273Z" stroke="#00ADB5" stroke-opacity="0.5"/>
<path d="M838.059 221.777C838.517 222.487 838.912 223.34 839.438 223.997C839.702 224.327 839.66 224.26 840.173 224.07C841.028 223.753 841.997 223.981 842.89 223.981C843.674 223.981 844.585 223.571 845.347 223.777C846.229 224.014 847.269 223.561 848.138 223.54C849.184 223.515 850.182 223.613 851.222 223.613C851.85 223.613 852.461 223.246 853.042 223.246C853.379 223.246 854.34 223.513 854.364 222.895C854.376 222.594 854.511 222.302 854.511 221.997C854.511 221.586 854.265 221.764 853.85 221.557" stroke="#00ADB5" stroke-opacity="0.5" stroke-linecap="round" stroke-linejoin="round"/>
<path d="M987.48 71.0062C988.046 70.2862 989.131 68.9538 987.611 68.7182C987.267 68.6649 986.945 68.4628 986.608 68.6158C985.568 69.0869 984.602 70.1242 984.602 71.3575C984.602 73.3274 986.763 73.7539 988.332 73.7284C990.98 73.6854 991.786 71.1056 992.721 69.0158C993.666 66.9049 994.715 64.8281 995.695 62.7323C996.804 60.3608 998.623 58.4717 999.774 56.1219C1000.27 55.1143 1000.91 54.227 1001.55 53.307C1002.53 51.8799 1003.23 50.4402 1003.94 48.8578C1004.52 47.5596 1005.16 46.3741 1005.87 45.1453C1006.15 44.6484 1006.05 43.8871 1006.59 44.4184C1007.01 44.8217 1007.67 45.0867 1008.23 45.1892C1010.68 45.6373 1012.93 46.1116 1015.45 45.9112C1018 45.7085 1020.55 45.3434 1023.05 44.8574C1023.91 44.6922 1023.54 44.8911 1023.14 45.4087C1022.46 46.2866 1021.88 47.217 1021.22 48.1065C1020.37 49.2666 1020.07 50.6636 1019.57 51.9898C1019.01 53.4477 1018.35 54.8402 1017.82 56.3219C1016.8 59.1856 1015.31 61.7972 1013.46 64.2007C1012.39 65.5936 1011.06 68.0264 1009.06 67.9279C1005.96 67.7755 1008.05 61.6678 1009.53 60.4735C1010.33 59.8306 1011.21 60.5228 1011.3 61.3858C1011.44 62.5717 1011.03 64.1967 1009.88 64.7764C1008.66 65.388 1007.73 65.3146 1008.67 63.7373C1009.23 62.7829 1009.57 63.8332 1009.8 63.3665" stroke="#00ADB5" stroke-opacity="0.5" stroke-width="2" stroke-linecap="round" stroke-linejoin="round"/>
<path d="M1221.31 283.769C1221.87 283.048 1222.96 281.716 1221.44 281.481C1221.09 281.427 1220.77 281.225 1220.44 281.378C1219.4 281.849 1218.43 282.887 1218.43 284.12C1218.43 286.09 1220.59 286.516 1222.16 286.491C1224.81 286.448 1225.61 283.868 1226.55 281.778C1227.49 279.667 1228.54 277.59 1229.52 275.495C1230.63 273.123 1232.45 271.234 1233.6 268.884C1234.1 267.877 1234.74 266.989 1235.37 266.069C1236.36 264.642 1237.06 263.202 1237.77 261.62C1238.35 260.322 1238.99 259.136 1239.7 257.908C1239.98 257.411 1239.87 256.649 1240.42 257.181C1240.84 257.584 1241.5 257.849 1242.06 257.951C1244.51 258.4 1246.76 258.874 1249.28 258.673C1251.83 258.471 1254.37 258.106 1256.88 257.62C1257.73 257.455 1257.37 257.653 1256.97 258.171C1256.29 259.049 1255.7 259.979 1255.05 260.869C1254.2 262.029 1253.9 263.426 1253.39 264.752C1252.84 266.21 1252.18 267.602 1251.65 269.084C1250.63 271.948 1249.13 274.56 1247.29 276.963C1246.22 278.356 1244.89 280.789 1242.89 280.69C1239.79 280.538 1241.88 274.43 1243.36 273.236C1244.16 272.593 1245.03 273.285 1245.13 274.148C1245.26 275.334 1244.86 276.959 1243.71 277.539C1242.49 278.15 1241.56 278.077 1242.5 276.5C1243.06 275.545 1243.4 276.596 1243.63 276.129" stroke="#00ADB5" stroke-opacity="0.5" stroke-width="2" stroke-linecap="round" stroke-linejoin="round"/>
<path d="M1196.31 159.664C1193.71 154.959 1193.86 153.615 1194.46 148.879C1194.78 146.272 1194.91 143.723 1195.57 141.158C1196.75 136.57 1197.13 130.391 1193.43 126.697C1186.17 119.428 1172.63 129.766 1176.73 138.988C1178.29 142.498 1180.98 145.097 1182.93 148.407C1183.71 149.735 1184.15 151.174 1185.16 152.415C1186.14 153.605 1187.35 155.086 1187.35 156.563C1187.35 157.811 1186.97 159.429 1187.86 160.532C1189.08 162.056 1188.64 161.272 1190.45 161.272C1191.69 161.272 1193.52 160.286 1194.52 159.486C1195.23 158.914 1195.62 160.567 1195.62 158.975C1195.62 157.608 1195.18 158.745 1196.08 158.745" stroke="#00ADB5" stroke-opacity="0.5" stroke-linecap="round" stroke-linejoin="round"/>
<path d="M1190.56 164.029C1193.02 163.297 1199.82 161.661 1198.25 163.685C1196.35 166.126 1195.53 164.903 1193.2 165.421C1192.01 165.685 1190.85 169.363 1192.17 169.441C1194.05 169.552 1195.3 167.016 1197.22 167.016C1198.97 167.016 1198.85 169.315 1197.8 170.13C1196.42 171.206 1194.82 170.05 1193.89 171.726C1192.42 174.374 1196.44 173.943 1197.58 173.321C1198.73 172.694 1199.82 171.715 1200.67 171.151" stroke="#00ADB5" stroke-opacity="0.5" stroke-linecap="round" stroke-linejoin="round"/>
<path d="M1196.31 158.918C1196.27 159.118 1196.24 160.468 1195.7 160.468C1195.41 160.468 1195.28 160.292 1195.01 160.44C1194.7 160.613 1194.41 161.021 1194.11 161.26C1193.85 161.47 1193.07 161.444 1192.92 161.706C1192.67 162.135 1192.18 162.37 1191.71 162.421C1191.11 162.488 1190.89 162.79 1190.25 162.648C1190.05 162.604 1190.03 162.479 1189.85 162.479C1189.56 162.479 1189.44 162.614 1189.23 162.377C1188.99 162.114 1188.61 161.991 1188.49 161.592C1188.34 161.049 1187.77 160.764 1188.61 161.1" stroke="#00ADB5" stroke-opacity="0.5" stroke-linecap="round" stroke-linejoin="round"/>
<path d="M1185.22 136.174C1186.25 136.179 1187.1 136.246 1187.45 137.335C1187.69 138.077 1187.69 138.805 1187.69 139.575C1187.69 140.324 1187.23 140.926 1187.23 141.63C1187.23 142.561 1187.98 142.409 1188.61 142.693C1189.2 142.961 1189.63 143.184 1189.96 143.784C1190.28 144.377 1190.03 145.525 1189.99 146.171C1189.95 146.726 1189.69 147.906 1190.07 148.375C1190.28 148.63 1191.42 149.024 1190.68 148.465" stroke="#00ADB5" stroke-opacity="0.5" stroke-linecap="round" stroke-linejoin="round"/>
<path d="M1176.55 146.569C1175.73 147.116 1174.89 147.574 1173.97 147.919C1173.58 148.064 1173.07 148.322 1173.16 147.718" stroke="#00ADB5" stroke-opacity="0.5" stroke-linecap="round" stroke-linejoin="round"/>
<path d="M1173.56 138.643C1172.1 138.995 1170.66 139.39 1169.21 139.779C1168.97 139.844 1169.52 139.236 1169.54 139.218" stroke="#00ADB5" stroke-opacity="0.5" stroke-linecap="round" stroke-linejoin="round"/>
<path d="M1173.16 131.12C1171.65 130.9 1170.14 130.628 1168.64 130.36C1167.95 130.237 1167.66 130.328 1168.05 129.741" stroke="#00ADB5" stroke-opacity="0.5" stroke-linecap="round" stroke-linejoin="round"/>
<path d="M1181.32 123.136C1180.12 122.927 1179.09 122.725 1178.01 122.185C1177.5 121.933 1177.02 121.63 1176.49 121.426C1175.86 121.184 1175.85 121.258 1176.55 120.839" stroke="#00ADB5" stroke-opacity="0.5" stroke-linecap="round" stroke-linejoin="round"/>
<path d="M1191.71 117.967C1191.89 119.186 1191.83 119.916 1191.33 121.021C1191.07 121.616 1190.84 122.369 1190.71 123.012C1190.67 123.233 1190.64 123.359 1190.49 123.526C1190.44 123.588 1190.64 122.848 1190.68 122.734" stroke="#00ADB5" stroke-opacity="0.5" stroke-linecap="round" stroke-linejoin="round"/>
<path d="M1200.5 122.849C1200.12 124.118 1199.57 125.336 1199.25 126.608C1199.08 127.251 1199.19 127.29 1199.46 126.64" stroke="#00ADB5" stroke-opacity="0.5" stroke-linecap="round" stroke-linejoin="round"/>
<path d="M1204.17 131.981C1202.87 133.11 1201.8 134.512 1200.79 135.899C1200.66 136.073 1200.51 136.135 1200.37 136.276C1200.05 136.596 1200.6 135.873 1200.67 135.772" stroke="#00ADB5" stroke-opacity="0.5" stroke-linecap="round" stroke-linejoin="round"/>
<path d="M911.734 247.189C913.644 255.791 915.794 264.412 917.057 273.144C917.763 278.022 916.213 270.983 916.021 269.988C915.604 267.834 915.126 265.926 915.126 263.723C915.126 259.29 915.007 254.807 914.678 250.369C914.448 247.262 910.632 238.011 915.455 245.729C920.374 253.598 923.846 262.299 927.185 270.883C927.645 272.066 928.282 273.187 928.786 274.322C929.062 274.942 923.899 269.896 921.909 268.811" stroke="#00ADB5" stroke-opacity="0.5" stroke-width="2" stroke-linecap="round" stroke-linejoin="round"/>
<path d="M908.766 266.267C914.278 264.067 926.431 259.919 929.964 253.737C931.444 251.147 931.156 252.344 926.996 253.124" stroke="#00ADB5" stroke-opacity="0.5" stroke-width="2" stroke-linecap="round" stroke-linejoin="round"/>
<path d="M925.301 237.438C929.554 245.858 932.635 254.824 933.803 264.171C933.911 265.037 934.112 265.987 934.722 266.597C934.835 266.71 932.682 262.679 932.084 261.603" stroke="#00ADB5" stroke-opacity="0.5" stroke-width="2" stroke-linecap="round" stroke-linejoin="round"/>
<path d="M925.301 237.014C928.599 238.99 940.713 246.287 932.814 250.934C932.121 251.342 931.308 251.718 930.812 252.371C929.762 253.752 929.636 254.157 930.388 252.276" stroke="#00ADB5" stroke-opacity="0.5" stroke-width="2" stroke-linecap="round" stroke-linejoin="round"/>
<path d="M936.323 232.775C937.728 242.293 940.139 252.752 940.139 262.451C940.139 264.592 939.781 260.627 939.291 259.484" stroke="#00ADB5" stroke-opacity="0.5" stroke-width="2" stroke-linecap="round" stroke-linejoin="round"/>
<path d="M946.074 249.733C948.402 256.671 949.598 260.76 942.777 262.781C940.446 263.472 943.262 260.086 943.86 259.672C945.901 258.259 947.933 253.711 945.65 251.428C944.742 250.52 942.568 251.667 941.929 250.581C940.986 248.979 943.098 245.945 944.378 245.163C948.059 242.914 947.596 246.084 946.074 245.069" stroke="#00ADB5" stroke-opacity="0.5" stroke-width="2" stroke-linecap="round" stroke-linejoin="round"/>
<path d="M1073.43 120.985C1074.83 128.379 1080.62 149.97 1077.25 143.238C1076.89 142.513 1076.59 141.898 1076.55 141.075C1076.44 138.03 1076.21 134.847 1075.16 131.957C1074.28 129.54 1074.47 127.034 1074.47 124.462C1074.47 123.947 1073.59 119.892 1073.68 119.865C1074.56 119.57 1078.21 124.006 1078.87 124.771C1082.21 128.639 1085.59 133.084 1087.97 137.617C1089.2 139.95 1089.57 140.786 1086.64 141.152" stroke="#00ADB5" stroke-opacity="0.5" stroke-width="2" stroke-linecap="round" stroke-linejoin="round"/>
<path d="M1073.08 135.936C1076.34 134.281 1079.45 132.958 1082.81 131.764" stroke="#00ADB5" stroke-opacity="0.5" stroke-width="2" stroke-linecap="round" stroke-linejoin="round"/>
<path d="M1082.47 121.333C1085.81 126.337 1088.99 131.663 1092.88 136.284C1093.43 136.943 1094.6 138.14 1094.6 136.593C1094.6 134.482 1093.43 132.3 1092.9 130.296C1092.05 127.09 1091.26 123.869 1090.54 120.637C1089.85 117.517 1090.34 118.682 1091.51 121.024C1093.45 124.903 1095.49 128.437 1098.19 131.88C1100.01 134.199 1100.2 132.908 1100.2 130.875C1100.2 127.184 1098.4 124.148 1097.07 120.83C1095.65 117.286 1095.75 112.448 1094.13 109.221C1093.51 107.966 1093.42 111.943 1093.25 113.335" stroke="#00ADB5" stroke-opacity="0.5" stroke-width="2" stroke-linecap="round" stroke-linejoin="round"/>
<path d="M1101.24 108.815C1101.33 109.224 1102.63 119.347 1104.91 118.203C1105.91 117.702 1106.16 116.169 1107.19 115.653C1108.86 114.818 1110.67 116.298 1111.33 117.74C1113.06 121.552 1111.06 125.967 1107.93 128.287C1103.58 131.5 1105.07 125.716 1105.07 124.114" stroke="#00ADB5" stroke-opacity="0.5" stroke-width="2" stroke-linecap="round" stroke-linejoin="round"/>
<path d="M1103.33 108.12C1102.7 109.83 1101.57 117.768 1101.22 114.688C1101.01 112.786 1101.39 111.34 1101.59 109.511C1102.07 105.172 1105.39 108.662 1104.02 106.381" stroke="#00ADB5" stroke-opacity="0.5" stroke-width="2" stroke-linecap="round" stroke-linejoin="round"/>
<path d="M1080.14 336.508C1080.02 336.295 1075.01 327.657 1075.44 327.408C1076.04 327.064 1077.17 327.399 1077.88 327.133C1079.97 326.348 1081.65 324.728 1083.38 323.388C1085.19 321.978 1087.67 333.036 1088.22 335.365C1088.89 338.183 1090.63 341.929 1087.38 343.555C1084.45 345.021 1080.59 344.578 1077.39 344.507C1072.17 344.391 1068.56 335.821 1067.95 331.556C1067.51 328.451 1063.21 318.483 1067.82 316.489C1069.06 315.955 1071.16 316.32 1072.5 316.32C1074.42 316.32 1076.09 315.177 1078.04 315.177C1081.15 315.177 1082.09 319.055 1079.38 314.796" stroke="#00ADB5" stroke-opacity="0.5" stroke-width="2" stroke-linecap="round" stroke-linejoin="round"/>
<path d="M1088.9 317.843C1089.44 319.815 1091.18 330.762 1095.76 327.959C1096.63 327.425 1097.26 326.131 1097.58 325.208C1098.42 322.742 1098.6 320.683 1096.71 318.796C1095.3 317.381 1092.56 314.494 1090.51 314.415C1085.41 314.219 1089.91 319.927 1089.28 318.986" stroke="#00ADB5" stroke-opacity="0.5" stroke-width="2" stroke-linecap="round" stroke-linejoin="round"/>
<path d="M1089.66 300.321C1093.43 306.27 1099.1 312.812 1101.39 319.663C1101.68 320.537 1101.69 321.131 1102.23 321.949C1103.06 323.182 1103.44 324.972 1104.22 323.091C1105.35 320.368 1107.92 317.951 1109.94 315.854C1112.43 313.268 1112.77 314.034 1108.33 314.034" stroke="#00ADB5" stroke-opacity="0.5" stroke-width="2" stroke-linecap="round" stroke-linejoin="round"/>
<path d="M1115.95 298.417C1115.47 299.484 1108.3 313.685 1115.23 310.458C1116.6 309.816 1118.01 308.817 1117.83 307.178C1117.65 305.598 1116.33 304.356 1115.65 302.988C1115.26 302.214 1113.72 298.489 1114.25 299.559C1115.84 302.741 1117.98 308.408 1120.35 310.775C1123.1 313.533 1124.76 310.635 1122.04 309.082" stroke="#00ADB5" stroke-opacity="0.5" stroke-width="2" stroke-linecap="round" stroke-linejoin="round"/>
<path d="M1120.14 299.94C1130.74 316.758 1117.32 297.888 1120.41 294.586C1123.4 291.391 1126.93 297.527 1128.05 299.475C1130 302.868 1131.92 311.671 1128.9 302.607" stroke="#00ADB5" stroke-opacity="0.5" stroke-width="2" stroke-linecap="round" stroke-linejoin="round"/>
<path d="M1133.47 285.466C1133.29 286.101 1127.6 302.105 1131.86 300.618C1133.67 299.986 1135.49 298.555 1136.45 296.914C1137.57 295.02 1138.08 292.423 1137.28 290.333C1136.73 288.908 1136.13 287.386 1135.37 286.058C1133.57 282.904 1138.43 292.652 1139.88 295.983C1142.01 300.86 1147.13 317.959 1135.05 314.563C1129.79 313.082 1134.75 304.892 1134.23 304.892" stroke="#00ADB5" stroke-opacity="0.5" stroke-width="2" stroke-linecap="round" stroke-linejoin="round"/>
<path d="M983.549 206.765C985.442 206.245 987.056 205.721 988.387 204.223C988.912 203.633 988.983 202.879 989.251 202.164C989.6 201.235 989.166 200.046 988.868 199.154C988.631 198.441 989.93 198.041 990.394 198.011C991.191 197.96 991.801 198.467 992.567 198.512C993.488 198.566 994.47 198.861 995.109 199.58C995.542 200.067 996.123 200.182 996.602 200.605C997.057 201.006 997.416 201.706 997.745 202.22C998.697 203.707 998.966 205.442 999.243 207.143C999.375 207.959 999.456 208.846 999.318 209.67C999.154 210.654 999.329 211.6 998.94 212.543C998.672 213.194 998.243 214.057 997.632 214.442C997.005 214.837 996.422 214.979 996.262 215.798C995.927 217.508 996.786 219.183 996.455 220.909C996.162 222.442 994.136 222.676 992.884 222.922C992.019 223.091 990.448 223.356 989.615 222.903C988.063 222.059 986.939 221.005 985.788 219.662C984.769 218.472 984.383 216.733 984.248 215.212C984.111 213.659 984.109 211.973 984.144 210.403C984.167 209.361 984.471 208.314 984.569 207.275C984.65 206.425 984.92 206.357 984.484 207.445" stroke="#00ADB5" stroke-opacity="0.5" stroke-linecap="round" stroke-linejoin="round"/>
<path d="M994.519 199.027C995.158 197.378 995.861 195.73 996.352 194.029C996.572 193.265 996.625 192.455 996.9 191.709C997.219 190.842 997.377 189.862 997.514 188.955C997.612 188.305 997.66 187.154 998.255 186.744C998.69 186.445 998.938 185.762 999.403 185.402C1000 184.941 1000.85 184.512 1001.27 183.895C1001.69 183.29 1002.13 182.04 1001.78 181.34C1001.59 180.951 1001.62 180.532 1001.43 180.149C1001.18 179.651 1000.95 179.247 1000.76 178.708C1000.6 178.237 1000.08 177.295 1000.68 176.96C1002.16 176.141 1002.26 177.431 1002.72 178.609C1002.96 179.218 1002.99 179.961 1003.21 180.593C1003.36 181.026 1003.63 180.713 1003.83 180.962C1004.14 181.336 1004.15 181.804 1004.38 182.209C1004.73 182.815 1004.32 184.044 1004.15 184.637C1003.82 185.735 1003.49 186.729 1003 187.783C1001.76 190.499 999.734 192.786 998.345 195.418C997.816 196.419 997.393 197.428 997.136 198.536C996.989 199.165 996.559 199.765 996.559 200.43C996.559 201.037 996.409 201.348 996.729 200.387" stroke="#00ADB5" stroke-opacity="0.5" stroke-linecap="round" stroke-linejoin="round"/>
<path d="M1001.15 178.534C1000.07 178.7 998.887 178.763 997.92 179.247C997.787 179.313 997.993 179.14 998.09 179.129C999.386 178.976 1000.8 177.82 1001.98 177.258C1002.86 176.84 1004.06 175.898 1005.06 175.898C1005.35 175.898 1004.1 176.705 1003.96 176.833" stroke="#00ADB5" stroke-opacity="0.5" stroke-linecap="round" stroke-linejoin="round"/>
<path d="M1000.05 180.404C1001.25 179.704 1003.35 178.944 1004.23 177.768C1004.32 177.654 1004.38 177.5 1004.51 177.428C1004.94 177.178 1004.17 177.457 1004.04 177.513" stroke="#00ADB5" stroke-opacity="0.5" stroke-linecap="round" stroke-linejoin="round"/>
<path d="M1000.9 181.51C1002.34 180.956 1004.99 180.464 1005.78 178.874C1005.9 178.644 1005.64 178.704 1005.49 178.704" stroke="#00ADB5" stroke-opacity="0.5" stroke-linecap="round" stroke-linejoin="round"/>
<path d="M1002.43 181.34C1002.33 183.29 1002.35 185.273 1001.24 186.943C1000.7 187.757 1000.32 188.299 1000.13 189.253C999.927 190.272 999.703 191.123 999.238 192.054C998.779 192.972 998.24 193.724 997.788 194.605C997.553 195.062 996.976 195.502 997.088 196.051C997.145 196.328 997.008 196.576 996.918 196.835C996.653 197.603 996.156 198.279 995.69 198.942C995.374 199.392 995.378 200.2 995.794 199.367" stroke="#00ADB5" stroke-opacity="0.5" stroke-linecap="round" stroke-linejoin="round"/>
<path d="M995.539 197.071C996.306 197.238 997.473 197.751 998.26 197.751C998.274 197.751 997.591 196.927 997.495 196.816" stroke="#00ADB5" stroke-opacity="0.5" stroke-linecap="round" stroke-linejoin="round"/>
<path d="M996.049 193.585C997.134 194.048 998.221 194.507 999.299 194.988C999.552 195.1 999.537 195.117 999.45 195.03C999.264 194.843 999.105 194.641 998.94 194.435" stroke="#00ADB5" stroke-opacity="0.5" stroke-linecap="round" stroke-linejoin="round"/>
<path d="M997.07 191.289C998.377 191.695 999.682 192.133 1001 192.489C1001.15 192.529 1001.36 192.608 1001.22 192.46C1000.93 192.165 1000.6 191.905 1000.3 191.629" stroke="#00ADB5" stroke-opacity="0.5" stroke-linecap="round" stroke-linejoin="round"/>
<path d="M997.75 188.398C999.238 189.125 1000.72 189.909 1002.25 190.557C1002.5 190.663 1002.58 190.741 1002.53 190.542C1002.46 190.273 1002.36 190.018 1002.26 189.758" stroke="#00ADB5" stroke-opacity="0.5" stroke-linecap="round" stroke-linejoin="round"/>
<path d="M999.62 186.357C999.756 186.422 1003.87 188.655 1003.53 187.802" stroke="#00ADB5" stroke-opacity="0.5" stroke-linecap="round" stroke-linejoin="round"/>
<path d="M1000.47 184.996C1001.71 185.288 1002.97 185.554 1004.21 185.762" stroke="#00ADB5" stroke-opacity="0.5" stroke-linecap="round" stroke-linejoin="round"/>
<path d="M1001.83 183.636C1002.4 183.663 1002.97 183.691 1003.53 183.721" stroke="#00ADB5" stroke-opacity="0.5" stroke-linecap="round" stroke-linejoin="round"/>
<path d="M990.607 209.146C990.016 209.381 986.377 210.286 986.355 211.291C986.347 211.684 986.355 212.077 986.402 212.467C986.549 213.678 987.392 214.312 988.424 214.891C989.737 215.626 991.151 215.649 992.582 215.231C993.942 214.833 994.826 213.329 994.282 212.037C994.169 211.769 994.56 211.715 994.306 211.404C994.059 211.102 993.896 211.277 993.498 211.357" stroke="#00ADB5" stroke-opacity="0.5" stroke-linecap="round" stroke-linejoin="round"/>
<path d="M988.821 212.292C989.498 210.581 990.342 208.87 990.735 207.063C990.837 206.589 990.964 206.191 991.221 205.764C991.763 204.86 992.241 203.895 992.563 202.891C992.868 201.938 992.888 200.998 993.29 200.066C993.434 199.734 994.291 198.737 993.923 199.197" stroke="#00ADB5" stroke-opacity="0.5" stroke-linecap="round" stroke-linejoin="round"/>
<path d="M995.539 200.047C995.223 202.017 994.749 203.902 994.415 205.849C994.229 206.928 993.923 207.83 993.923 208.967C993.923 209.779 994.213 210.457 994.027 211.272C993.813 212.21 993.62 211.748 993.243 211.102" stroke="#00ADB5" stroke-opacity="0.5" stroke-linecap="round" stroke-linejoin="round"/>
<path d="M994.689 200.047C994.097 201.277 992.818 203.299 992.818 204.852C992.818 205.735 992.875 206.672 992.813 207.568C992.74 208.634 991.908 210.015 991.41 210.932C991.245 211.236 991.03 211.471 990.928 211.801C990.801 212.213 990.892 212.238 990.607 211.782" stroke="#00ADB5" stroke-opacity="0.5" stroke-linecap="round" stroke-linejoin="round"/>
<path d="M988.566 210.507C990.014 211.543 992.571 213.657 994.349 211.829C994.626 211.544 995.026 210.936 995.18 210.573C995.39 210.076 994.71 210.498 994.263 210.592" stroke="#00ADB5" stroke-opacity="0.5" stroke-linecap="round" stroke-linejoin="round"/>
<path d="M990.267 208.976C991.093 208.95 992.762 209.173 993.564 208.759C993.591 208.745 993.503 208.768 993.479 208.787C993.4 208.85 993.236 208.747 993.158 208.721" stroke="#00ADB5" stroke-opacity="0.5" stroke-linecap="round" stroke-linejoin="round"/>
<path d="M991.202 205.83C991.808 205.99 994.001 206.924 994.093 205.915" stroke="#00ADB5" stroke-opacity="0.5" stroke-linecap="round" stroke-linejoin="round"/>
<path d="M992.223 203.279C992.974 203.769 996.023 206.04 995.539 203.619" stroke="#00ADB5" stroke-opacity="0.5" stroke-linecap="round" stroke-linejoin="round"/>
<path d="M993.073 202.088C993.838 202.287 994.603 202.485 995.369 202.683" stroke="#00ADB5" stroke-opacity="0.5" stroke-linecap="round" stroke-linejoin="round"/>
<path d="M996.814 202.088C997.761 202.98 999.65 205.054 999.706 206.614C999.751 207.886 999.706 209.116 999.706 210.403C999.706 211.339 999.884 212.338 999.791 213.228C999.668 214.396 997.874 214.411 998.303 215.783C998.446 216.242 998.321 216.513 998.723 216.842C999.07 217.125 999.322 217.455 999.45 217.905C999.751 218.955 999.153 219.903 998.43 220.626C997.978 221.078 997.391 221.987 996.857 222.284C996.593 222.43 996.054 222.326 995.751 222.326C995.471 222.326 994.904 222.509 994.651 222.624C994.278 222.794 993.802 222.494 993.328 222.667" stroke="#00ADB5" stroke-opacity="0.5" stroke-linecap="round" stroke-linejoin="round"/>
<path d="M983.549 207.02C983.892 208.159 984.147 209.106 984.721 210.081C984.956 210.482 984.924 210.846 984.82 211.314C984.699 211.859 984.301 213.136 984.612 213.695C985.09 214.555 985.08 215.465 985.08 216.417C985.08 217.334 986.513 217.732 986.984 218.202C987.682 218.901 987.379 219.792 988.528 220.097C988.78 220.163 989.173 220.167 989.369 220.328C989.518 220.45 989.693 220.755 989.889 220.791C990.294 220.865 990.836 220.784 991.202 220.947C991.508 221.083 991.731 221.279 992.01 221.434C992.317 221.604 992.738 221.412 993.073 221.58C994.216 222.152 993.706 221.608 992.903 220.966" stroke="#00ADB5" stroke-opacity="0.5" stroke-linecap="round" stroke-linejoin="round"/>
<path d="M898.926 164.311C896.654 167.219 886.898 178.853 895.211 181.486C897.791 182.303 901.148 180.424 903.929 180.696C907.861 181.079 910.072 184.422 911.039 187.893C912.153 191.89 906.007 198.998 908.962 201.147C914.022 204.827 921.31 198.604 925.492 203.546C927.862 206.347 925.37 210.417 926.838 203.809" stroke="#00ADB5" stroke-opacity="0.5" stroke-linecap="round" stroke-linejoin="round"/>
<path d="M1013.04 119.02C1015.23 121.922 1020.44 128.459 1022.4 132.186C1024.07 135.359 1021.97 135.232 1020.18 133.971C1018.04 132.464 1018.34 129.258 1018.95 127.037C1021.01 119.541 1034.36 112.649 1035.86 124.17C1036.39 128.217 1032.77 135.021 1027.85 133.415C1021.34 131.295 1021.75 121.365 1026.68 117.675C1031.71 113.899 1039.96 118.237 1039.96 124.404C1039.96 131.25 1031.82 133.37 1028.66 127.33C1025.8 121.84 1030.88 116.097 1036.33 115.275C1038.34 114.973 1043.51 117.289 1039.9 118.494" stroke="#00ADB5" stroke-opacity="0.5" stroke-linecap="round" stroke-linejoin="round"/>
<path d="M1123.11 171.158C1119.7 174.546 1108.92 182.447 1117.99 185.523C1123.26 187.313 1128.15 184.379 1131.42 180.374C1135.02 175.955 1135.64 168.966 1129.9 166.096C1125.43 163.864 1121.58 160.278 1117.84 165.891" stroke="#00ADB5" stroke-opacity="0.5" stroke-linecap="round" stroke-linejoin="round"/>
<path d="M1239.5 217.502C1232.98 221.381 1223.1 226.066 1233.18 229.732C1234.73 230.295 1235.73 229.928 1237.1 228.971C1242.14 225.43 1242.43 224.012 1242.13 218.555C1241.93 214.942 1236.65 215.768 1234.23 216.975C1230.67 218.756 1228.18 222.321 1226.74 225.928C1224.8 230.782 1234.83 230.485 1236.22 224.641C1237.09 220.977 1232.9 215.773 1230.02 220.252C1226.2 226.187 1232.02 231.494 1235.69 225.285C1239.21 219.337 1231 216.884 1228.79 223.822C1225.89 232.944 1243.14 223.039 1236.86 219.901C1233.12 218.031 1226.81 229.908 1233.7 226.952C1242.08 223.363 1232.71 218.073 1232.71 226.455C1232.71 233.257 1243.96 223.385 1236.63 220.72C1234.95 220.111 1233.3 225.466 1234.49 226.66C1236.57 228.736 1240.18 223.359 1239.99 221.423C1239.2 213.112 1231.07 234.241 1240.75 224.553C1242.97 222.34 1242.88 218.34 1239.2 220.691C1237.04 222.078 1235.66 227.966 1239.76 226.601C1243.69 225.29 1243.69 218.007 1239.47 219.696C1236.89 220.728 1235.95 224.377 1233.18 223.822" stroke="#00ADB5" stroke-opacity="0.5" stroke-linecap="round" stroke-linejoin="round"/>
<path d="M1182.62 271.746C1181.53 272.946 1164.18 294.357 1172.91 283.449C1174.9 280.954 1176.73 278.5 1179.46 276.749C1181.14 275.669 1182.76 275.003 1184.2 273.56C1185.78 271.983 1183.54 272.087 1183.17 275.374C1182.86 278.236 1183.1 290.733 1182.62 290.705C1179.37 290.514 1177.23 287.312 1174.22 286.258C1172.61 285.693 1167.83 286.506 1169.16 285.438C1172.42 282.829 1182.41 275.346 1179.46 278.3C1177.22 280.537 1172.62 288.947 1174.19 286.199C1175.31 284.245 1178.33 277.879 1177.88 278.943C1176.95 281.136 1175.34 284.893 1175.48 287.311C1175.61 289.606 1180.17 283.958 1180.45 283.39C1182.57 279.164 1178.19 288.668 1179.75 286.404C1181.15 284.364 1185.89 279.179 1182.5 284.268C1181.76 285.382 1186.02 280.244 1185.25 281.342C1185.03 281.661 1183.1 284.898 1184.23 283.771C1188.27 279.733 1182.32 283.931 1181.57 282.805" stroke="#00ADB5" stroke-opacity="0.5" stroke-linecap="round" stroke-linejoin="round"/>
<path d="M1147.33 359.168C1149.18 356.543 1159.71 344.961 1151.05 344.451C1149.59 344.365 1146.57 343.89 1145.34 344.89C1142.44 347.269 1143.7 353.685 1147.63 354.399C1152.84 355.346 1157.72 348.222 1152.07 345.475C1146.18 342.606 1132.25 354.131 1138.26 358.875C1150.1 368.217 1160.8 341.07 1145.49 344.978C1131.61 348.523 1143.84 362.823 1150.14 353.609C1156.89 343.744 1136.08 343.659 1139.76 354.692C1141.57 360.133 1147.52 357.507 1148.59 353.112C1150.16 346.668 1143.75 349.329 1143.65 353.785C1143.54 358.56 1150.89 349.92 1146.49 350.303C1143.3 350.58 1142.99 354.955 1140.49 354.955" stroke="#00ADB5" stroke-opacity="0.5" stroke-linecap="round" stroke-linejoin="round"/>
<path d="M937.732 309.664C938.795 314.489 940.891 329.088 940.891 324.146C940.891 320.735 938.286 317.552 937.761 314.14C937.577 312.948 937.956 309.422 936.942 308.611C936.248 308.056 942.806 313.16 944.549 314.14C947.729 315.929 950.009 319.271 952.77 315.72C954.096 314.016 957.996 313.78 958.534 313.35C962.433 310.231 962.076 305.575 962.981 301.501C963.304 300.048 962.484 306.462 962.484 308.347C962.484 310.759 962.919 313.953 963.566 316.218C964.485 319.434 964.117 310.357 963.244 308.611C961.826 305.774 961.957 303.257 961.957 300.184C961.957 298.971 970.761 314.179 969.213 315.34C968.566 315.825 959.945 313.447 957.334 314.287C955.085 315.01 953.031 315.853 950.898 316.92C950.314 317.211 949.352 318.273 949.727 317.973C951.064 316.903 955.155 313.979 953.531 314.521C951.299 315.265 949.108 317.424 947.094 318.617C943.298 320.866 942.07 320.552 940.482 324.41C940.253 324.966 943.086 324.895 943.642 325.053C947.627 326.192 950.132 323.088 953.648 321.66C958.186 319.816 963.403 316.03 968.277 315.457C971.955 315.024 966.362 313.734 966.17 313.35" stroke="#00ADB5" stroke-opacity="0.5" stroke-linecap="round" stroke-linejoin="round"/>
<path d="M1138.91 106.908C1148.83 103.726 1164.91 100.067 1173.78 92.8056C1175.39 91.488 1177.89 90.2249 1177.32 87.6855C1175.2 78.1454 1170.59 75.908 1161.49 76.9186C1156.45 77.4792 1151.61 82.1327 1146.92 84.0283C1142.1 85.9798 1137.28 88.5438 1132.88 91.3427C1128.43 94.1755 1131.01 95.5788 1131.01 100.471C1131.01 103.161 1132.62 106.908 1135.48 106.908C1136.79 106.908 1140.54 105.855 1136.83 105.855C1133.92 105.855 1129.4 106.296 1126.79 104.918C1124.81 103.866 1128.73 101.795 1129.66 101.671C1132.99 101.227 1125.85 104.483 1125.13 104.714C1123.64 105.188 1130.48 100.011 1126.68 101.232C1122.56 102.555 1128.67 99.0064 1129.95 98.3646C1131.4 97.6401 1130.14 98.7871 1130.48 98.189C1131.03 97.2321 1134.19 93.7164 1131.33 96.5798C1130.37 97.5385 1133.49 94.9448 1134.55 94.0929C1136.53 92.4886 1134.01 94.9227 1133.52 95.3218C1131.27 97.1605 1130.74 95.6768 1128.9 96.4921C1128.13 96.8329 1126.27 97.9632 1126.27 96.6384C1126.27 94.3526 1134.33 93.3114 1135.81 93.2445C1144.83 92.8344 1151.14 88.8553 1159.45 86.7785C1163.44 85.7791 1167.81 84.3398 1171.56 82.5654C1174.34 81.2494 1179.9 77.1292 1182.85 77.9719C1184.01 78.3031 1166.13 88.7084 1171.27 85.3156C1175.52 82.5091 1180.39 80.5383 1174.02 85.813C1168.91 90.0386 1177.89 85.1166 1178.61 85.4034C1179.9 85.9185 1170.68 91.183 1177.7 87.9488C1180.39 86.7119 1182.62 86.6508 1182.62 83.7357C1182.62 79.7787 1183.7 75.0887 1178.67 76.9186C1172.86 79.0303 1168.2 83.5438 1162.2 85.3156C1158.06 86.537 1154.03 88.0795 1149.97 89.5287C1145.26 91.2104 1136.74 93.0908 1133.38 97.1943C1131.59 99.3811 1128.4 107.904 1134.99 104.216C1141.03 100.833 1141.99 93.9889 1145.23 88.5925C1146.84 85.9121 1142.42 94.2537 1141.77 97.3113C1141.03 100.828 1144.34 104.875 1148.12 104.216C1152.28 103.494 1156.65 97.7573 1158.13 94.2685C1165.26 77.4999 1152.33 93.7638 1155.99 97.4283C1159.88 101.317 1165.81 91.0151 1166.59 88.4755C1167.52 85.4154 1168.07 81.6434 1169.19 78.7326C1170.64 74.9575 1161.37 79.2093 1160.5 79.6396C1155.68 82.0227 1152.31 85.2016 1149.03 89.4117C1147.84 90.9356 1143.08 98.1087 1146.34 99.7397C1150.71 101.925 1156.08 95.1316 1156.2 91.606C1156.61 79.663 1146.78 85.7839 1140.84 90.465C1137.17 93.3575 1140.36 99.1387 1141.01 98.4816" stroke="#00ADB5" stroke-opacity="0.5" stroke-linecap="round" stroke-linejoin="round"/>
<path d="M1005.67 392.346C1005.44 392.529 996.774 400.003 996.774 397.876C996.774 396.63 997.733 395.296 998.588 394.482C1000.28 392.872 1006.95 391.634 1005.35 395.565C1004.27 398.201 999.86 402.087 998.617 397.115C998.101 395.051 1001.64 390.908 1003.8 392.668C1006.17 394.609 1001.07 397.082 999.465 396.208C996.604 394.647 1000.04 389.09 1002.8 390.24C1005.69 391.443 1001.72 394.731 1000.4 395.389C997.326 396.927 997.756 394.441 996.189 392.873" stroke="#00ADB5" stroke-opacity="0.5" stroke-linecap="round" stroke-linejoin="round"/>
<path d="M862.949 391.82C865.985 396.822 871.767 402.013 865.875 406.566C864.355 407.74 855.39 412.435 855.927 406.975C856.581 400.326 866.49 400.178 867.103 394.219C867.71 388.325 853.635 390.546 850.427 386.553C848.417 384.052 846.796 378.509 847.267 375.318C847.45 374.075 850.602 371.663 850.28 373.914C849.692 378.034 836.407 388.588 844.282 392.054C849.563 394.377 850.925 388.494 854.815 387.08C862.828 384.166 850.836 405.777 850.836 400.246" stroke="#00ADB5" stroke-opacity="0.5" stroke-linecap="round" stroke-linejoin="round"/>
<path d="M1121 460.283C1118.56 466.054 1113.63 483.84 1113.63 477.574C1113.63 476.597 1113.82 475.825 1114.16 474.912C1115.74 470.621 1117.58 466.628 1120.24 462.857C1121.7 460.799 1123.43 454.772 1125.51 459.346C1126.48 461.48 1129.25 467.422 1128.08 469.762C1126.61 472.7 1122.05 474.385 1119.01 474.502C1118.22 474.532 1109.91 475.624 1112.61 473.156C1115.77 470.256 1118.83 461.436 1123.61 460.839C1124.34 460.746 1125.88 461.239 1126.53 461.599C1127.67 462.233 1126.28 463.378 1125.74 464.262C1125.09 465.322 1119.96 472.483 1119.95 472.161C1119.8 467.362 1124.73 460.395 1127.38 456.772C1128.33 455.473 1123.27 464.291 1122.11 466.281C1121.22 467.82 1122.39 471.092 1118.37 470.289" stroke="#00ADB5" stroke-opacity="0.5" stroke-linecap="round" stroke-linejoin="round"/>
<path d="M957.744 36.8648C955.394 46.0569 953.301 54.8151 952.448 64.1915C952.363 65.1294 951.77 65.7358 952.36 66.4736C953.239 67.5717 955.562 60.5897 956.457 58.7203C959.29 52.7949 962.484 50.4566 962.484 43.1844C962.484 42.1351 962.484 36.0956 962.484 40.0831C962.484 43.4685 963.125 46.8144 962.893 50.2063C962.718 52.77 960.257 59.6889 962.074 57.8718C964.879 55.0672 962.632 41.0049 958.241 40.639C952.248 40.1396 949.359 53.129 948.674 57.1696C947.877 61.8708 951.192 63.839 954.847 60.1832C959.837 55.1934 960.919 44.9347 956.632 39.0884C950.742 31.0564 946.877 45.5488 946.392 49.0945C945.295 57.1151 949.775 59.6853 955.081 53.9806C957.033 51.8824 960.968 48.2543 960.143 44.9984C959.045 40.6676 952.644 44.8731 951.366 46.7539C949.553 49.4209 949.577 56.064 952.507 57.9596C955.242 59.7295 957.904 52.3957 957.598 50.5574C956.298 42.7611 941.602 55.1374 948.908 59.5688C955.267 63.4256 959.482 46.1709 951.658 48.3046C949.48 48.8987 944.305 54.7705 948.791 54.7705" stroke="#00ADB5" stroke-opacity="0.5" stroke-linecap="round" stroke-linejoin="round"/>
<path d="M818.184 186.957C815.818 193.662 814.114 197.942 808.12 201.703C806.615 202.647 804.626 204.318 804.316 206.209C803.655 210.249 810.028 214.701 813.649 213.494C821.281 210.95 809.733 203.397 808.5 201.205C806.354 197.389 814.112 190.534 817.687 192.545C820.47 194.111 821.704 199.566 820.057 202.229C817.658 206.11 812.502 206.263 808.471 205.653C805.26 205.166 798.83 205.828 800.718 210.597C803.08 216.565 814.23 213.437 815.902 208.374C817.531 203.444 808.716 201.586 810.607 196.963C811.906 193.788 816.007 189.824 819.647 189.824C824.007 189.824 819.653 197.969 819.004 199.245C816.135 204.883 811.747 205.445 806.189 206.969C795.728 209.837 806.997 210.241 807.652 206.969" stroke="#00ADB5" stroke-opacity="0.5" stroke-linecap="round" stroke-linejoin="round"/>
<path d="M805.545 259.107C804.427 263.316 801.122 270.501 801.449 275.081C801.602 277.228 802.189 270.84 802.444 268.703C802.93 264.632 803.486 260.034 805.662 256.473C806.048 255.841 814.98 266.991 815.785 268.82C817.939 273.716 815.242 272.784 811.865 274.379C809.987 275.266 797.177 279.787 797.177 278.592C797.177 277.34 799.592 274.795 800.162 273.735C801.943 270.42 803.855 266.258 804.609 262.559C806.218 254.658 805.018 270.917 805.018 272.155C805.018 272.907 805.31 277.305 803.555 277.305C801.359 277.305 805.04 273.171 805.779 271.102C806.562 268.909 809.681 262.444 808.91 260.131C807.817 256.854 807.271 266.89 807.154 270.341C807.075 272.681 805.943 276.586 807.769 272.799C808.35 271.592 810.228 266.645 810.197 267.006C809.932 270.051 808.705 273.19 808.705 276.252C808.705 279.385 810.358 269.298 813.21 268.001C813.92 267.678 812.918 273.625 812.918 274.496C812.918 276.081 814.439 268.405 814.439 269.99C814.439 270.432 813.808 273.103 813.328 272.272C811.358 268.871 809.876 266.768 805.838 265.543C803.998 264.985 798.152 265.368 800.074 265.368C801.337 265.368 803.322 260.971 804.726 262.12C806.589 263.644 804.032 268.51 803.438 270.166C802.467 272.877 801.858 269.064 804.258 269.347C806.758 269.641 804.207 278.873 805.603 276.778C806.252 275.806 808.215 271.01 808.149 271.57C806.874 282.406 807.139 268.608 809.231 271.746" stroke="#00ADB5" stroke-opacity="0.5" stroke-linecap="round" stroke-linejoin="round"/>
<path d="M1066.23 115.861C1072.93 115.53 1079.4 118.007 1078.34 110.068C1077.82 106.134 1075.62 99.7021 1076.76 95.8484C1077.98 91.7569 1085.48 82.5299 1079.08 79.6396C1073.71 77.2159 1066.69 84.0698 1065.71 88.7095C1065.29 90.6392 1065.38 96.6676 1068.57 96.6676C1070.98 96.6676 1072.52 94.2999 1074.63 96.4043C1077.38 99.1553 1077.87 101.665 1075.92 105.123C1071.22 113.424 1052.66 104.152 1062.66 94.1514C1064.03 92.7806 1069.45 86.4939 1072.02 88.2999C1075.56 90.7844 1075.08 97.2529 1073.25 100.471C1071.43 103.68 1064.74 107.041 1062.11 102.929C1060.81 100.897 1061.43 99.5348 1063.6 99.5348" stroke="#00ADB5" stroke-opacity="0.5" stroke-linecap="round" stroke-linejoin="round"/>
<path d="M1122.34 165.146C1122.95 164.896 1142.22 155.385 1141.32 160.611C1140.84 163.415 1141.17 166.031 1141.56 168.832C1141.71 169.904 1144.32 178.253 1141.71 178.253C1136.83 178.253 1132.07 175.805 1127.19 176.732C1125.17 177.116 1121.14 178.502 1120.99 175.269C1120.88 172.844 1118.86 161.945 1123.65 163.01C1127.6 163.887 1127.77 160.754 1124.97 167.72C1124.57 168.709 1121.96 176.14 1122.4 175.795C1126.78 172.353 1129.18 165.735 1133.19 161.722C1135.7 159.217 1131.4 169.273 1130.88 170.529C1128.21 176.947 1135.03 165.09 1135.8 163.917C1139.16 158.766 1136.61 167.987 1136.09 169.505C1134.53 174.068 1139.32 165.548 1141.24 164.414C1147.59 160.658 1141.59 173.63 1140.24 170.939" stroke="#00ADB5" stroke-opacity="0.5" stroke-linecap="round" stroke-linejoin="round"/>
<path d="M1070.44 264.373C1070.75 272.114 1070.61 276.337 1077.17 271.453C1079.04 270.068 1078.24 273.346 1077.79 274.145C1077.03 275.48 1072.55 282.189 1077.06 279.616C1078.2 278.965 1081.27 277.665 1081.27 280.172C1081.27 280.568 1079.89 285.412 1081.24 284.063C1083.45 281.853 1083.49 273.521 1083.61 270.283C1083.64 269.576 1083.95 268.754 1083.32 269.113C1080.09 270.957 1078.56 280.615 1076.88 284.385C1075.43 287.64 1071.26 283.805 1068.86 282.279C1064.32 279.385 1067.18 281.44 1067.28 281.225" stroke="#00ADB5" stroke-opacity="0.5" stroke-linecap="round" stroke-linejoin="round"/>
<path d="M1034.11 333.363C1034.09 333.608 1033.47 348.726 1033.58 341.379C1033.61 339.137 1033.55 336.893 1033.58 334.65C1033.67 328.281 1034.8 331.236 1037.56 333.86C1038.82 335.063 1043.46 337.66 1042.71 340.092C1042.49 340.809 1035.05 342.104 1033.87 342.55C1032.99 342.884 1027.79 346.161 1027.79 346.002C1027.79 342.089 1029.17 337.854 1029.63 333.948C1030.61 325.677 1036.34 347.818 1036.71 342.228C1036.8 340.912 1036.74 333.077 1036.74 335.031C1036.74 336.485 1037.79 344.241 1037.79 339.156C1037.79 338.005 1037.79 336.854 1037.79 335.703C1037.79 335.161 1038.09 337.758 1038.29 337.254C1039.02 335.43 1037.79 331.762 1037.79 336.23C1037.79 341.246 1036.39 337.634 1033.32 337.634C1030.69 337.634 1029.19 347.26 1030.54 345.007C1031.72 343.035 1029.39 335.002 1030.42 339.127C1030.96 341.286 1032.26 338.899 1033.05 338.103" stroke="#00ADB5" stroke-opacity="0.5" stroke-linecap="round" stroke-linejoin="round"/>
<path fill-rule="evenodd" clip-rule="evenodd" d="M1031.61 277.861C1029.17 276.97 1026.84 275.668 1024.72 273.859C1008.7 260.208 1015.57 239.612 1025.26 228.889C1034.96 218.167 1094.28 222.444 1066.3 272.118C1066.18 272.189 1066.06 272.26 1065.94 272.332C1062.81 282.288 1065.45 290.827 1068.61 301.072C1069.91 305.251 1071.28 309.714 1072.4 314.672L1042.72 312.546C1034.56 301.468 1031.47 290.302 1031.61 277.861Z" fill="#F5B9AB"/>
<path d="M1024.72 273.859L1024.27 274.392L1024.72 273.859ZM1031.61 277.861L1031.85 277.204C1032.13 277.306 1032.31 277.573 1032.31 277.869L1031.61 277.861ZM1025.26 228.889L1025.78 229.359L1025.26 228.889ZM1066.3 272.118L1066.91 272.461C1066.85 272.566 1066.76 272.654 1066.66 272.717L1066.3 272.118ZM1065.94 272.332L1065.27 272.122C1065.32 271.957 1065.44 271.817 1065.58 271.729L1065.94 272.332ZM1068.61 301.072L1067.95 301.279L1068.61 301.072ZM1072.4 314.672L1073.08 314.519C1073.13 314.735 1073.07 314.961 1072.93 315.129C1072.78 315.296 1072.57 315.386 1072.35 315.37L1072.4 314.672ZM1042.72 312.546L1042.67 313.243C1042.46 313.229 1042.27 313.125 1042.15 312.96L1042.72 312.546ZM1025.17 273.327C1027.23 275.078 1029.48 276.34 1031.85 277.204L1031.37 278.518C1028.86 277.601 1026.46 276.257 1024.27 274.392L1025.17 273.327ZM1025.78 229.359C1021.02 234.63 1016.95 242.328 1016.04 250.355C1015.14 258.35 1017.36 266.671 1025.17 273.327L1024.27 274.392C1016.06 267.396 1013.7 258.594 1014.65 250.198C1015.6 241.833 1019.82 233.872 1024.75 228.42L1025.78 229.359ZM1065.69 271.774C1072.64 259.439 1074.1 250.046 1072.38 243.066C1070.66 236.105 1065.75 231.393 1059.61 228.487C1053.46 225.577 1046.13 224.507 1039.74 224.833C1036.54 224.996 1033.6 225.506 1031.18 226.296C1028.74 227.09 1026.88 228.146 1025.78 229.359L1024.75 228.42C1026.07 226.952 1028.19 225.797 1030.74 224.966C1033.31 224.131 1036.37 223.604 1039.67 223.436C1046.25 223.101 1053.82 224.195 1060.21 227.223C1066.62 230.255 1071.9 235.255 1073.74 242.732C1075.57 250.19 1073.95 259.959 1066.91 272.461L1065.69 271.774ZM1065.58 271.729C1065.7 271.658 1065.82 271.588 1065.94 271.518L1066.66 272.717C1066.54 272.789 1066.42 272.862 1066.29 272.935L1065.58 271.729ZM1067.95 301.279C1064.79 291.063 1062.07 282.316 1065.27 272.122L1066.61 272.542C1063.55 282.259 1066.11 290.591 1069.28 300.866L1067.95 301.279ZM1071.71 314.825C1070.61 309.898 1069.24 305.46 1067.95 301.279L1069.28 300.866C1070.57 305.042 1071.96 309.53 1073.08 314.519L1071.71 314.825ZM1042.77 311.848L1072.45 313.975L1072.35 315.37L1042.67 313.243L1042.77 311.848ZM1032.31 277.869C1032.17 290.17 1035.22 301.185 1043.28 312.131L1042.15 312.96C1033.9 301.752 1030.76 290.435 1030.91 277.853L1032.31 277.869Z" fill="black"/>
<path d="M1071.62 242.12C1076.27 248.582 1071.27 264.541 1067.57 268.532C1098.16 251.563 1078.8 213.276 1069.36 220.258C1067.82 206.103 1051.58 201.108 1040.51 213.08C1012.75 190.662 1011.29 228.862 1021.08 234.671C1030.88 240.48 1042.77 234.948 1048.94 237.944C1055.11 240.939 1058.92 259.085 1060.92 249.014C1062.91 238.943 1065.82 234.044 1071.62 242.12Z" fill="#00ADB5" stroke="black" stroke-width="1.39887"/>
<path d="M1099.07 523.989L1056.02 520.865L1066.38 404.989C1066.38 404.989 1016.44 286.63 1059.31 286.63C1119.89 286.63 1140.15 379.966 1139.4 404.989C1138.64 430.012 1099.07 523.989 1099.07 523.989Z" fill="#EEEEEE" stroke="black" stroke-width="1.39887"/>
<path d="M1055.7 525.877L1056.3 520.645L1099.65 522.387L1098.7 530.795C1097.15 544.389 1083.53 553.155 1070.52 548.935C1060.72 545.757 1054.52 536.111 1055.7 525.877Z" fill="#F5B9AB" stroke="black" stroke-width="1.39887" stroke-linejoin="round"/>
<path d="M993.211 440.602C965.208 413.451 1000.01 323.516 1005.68 312.813C1013.95 297.561 1038.75 271.028 1071.85 286.912C1121.91 310.932 1099.04 429.78 1090.04 470.978L993.211 440.602Z" fill="#EEEEEE" stroke="black" stroke-width="1.39887"/>
<path d="M775.154 534.857L770.642 494.065C770.642 494.065 875.411 460.111 961.758 447.371L1080.32 457.612C1098.12 499.696 1089.34 577.038 957.256 541.481L775.154 534.857Z" fill="#00ADB5" stroke="black" stroke-width="1.39887"/>
<path fill-rule="evenodd" clip-rule="evenodd" d="M902.109 463.389L883.494 521.285L844.438 519.377L826.617 411.371C823.665 393.479 837.469 377.21 855.603 377.21L879.767 377.21L881.436 374.601L889.548 377.21C896.031 377.218 901.901 379.281 906.658 382.714L1070.79 435.51C1096.17 443.675 1107.58 473.144 1094.33 496.278L1069.22 540.092C1056.19 562.835 1025.71 568.179 1005.72 551.228L902.109 463.389Z" fill="#00ADB5"/>
<path d="M902.109 463.389L902.561 462.855L901.763 462.179L901.443 463.175L902.109 463.389ZM883.494 521.285L883.46 521.983L883.996 522.009L884.16 521.499L883.494 521.285ZM844.438 519.377L843.747 519.49L843.839 520.048L844.403 520.075L844.438 519.377ZM826.617 411.371L827.307 411.257L826.617 411.371ZM855.603 377.21V377.91V377.91V377.21ZM879.767 377.21V377.91H880.15L880.356 377.587L879.767 377.21ZM881.436 374.601L881.651 373.935L881.138 373.77L880.847 374.224L881.436 374.601ZM889.548 377.21L889.334 377.876L889.438 377.91L889.547 377.91L889.548 377.21ZM906.658 382.714L906.249 383.281L906.339 383.346L906.444 383.38L906.658 382.714ZM1070.79 435.51L1070.57 436.176L1070.79 435.51ZM1094.33 496.278L1093.72 495.931V495.931L1094.33 496.278ZM1069.22 540.092L1068.61 539.744L1069.22 540.092ZM1005.72 551.228L1005.27 551.761L1005.72 551.228ZM901.443 463.175L882.828 521.07L884.16 521.499L902.775 463.603L901.443 463.175ZM883.528 520.586L844.472 518.678L844.403 520.075L883.46 521.983L883.528 520.586ZM845.128 519.263L827.307 411.257L825.927 411.485L843.747 519.49L845.128 519.263ZM827.307 411.257C824.425 393.791 837.9 377.91 855.603 377.91V376.511C837.037 376.511 822.904 393.166 825.927 411.485L827.307 411.257ZM855.603 377.91L879.767 377.91V376.511L855.603 376.511V377.91ZM880.356 377.587L882.026 374.978L880.847 374.224L879.178 376.833L880.356 377.587ZM881.222 375.267L889.334 377.876L889.762 376.544L881.651 373.935L881.222 375.267ZM889.547 377.91C895.879 377.917 901.606 379.931 906.249 383.281L907.068 382.147C902.195 378.631 896.183 376.519 889.549 376.511L889.547 377.91ZM906.444 383.38L1070.57 436.176L1071 434.844L906.873 382.048L906.444 383.38ZM1070.57 436.176C1095.53 444.204 1106.76 473.182 1093.72 495.931L1094.93 496.626C1108.41 473.106 1096.81 443.145 1071 434.844L1070.57 436.176ZM1093.72 495.931L1068.61 539.744L1069.83 540.44L1094.93 496.626L1093.72 495.931ZM1068.61 539.744C1055.8 562.108 1025.83 567.363 1006.17 550.694L1005.27 551.761C1025.6 568.995 1056.58 563.562 1069.83 540.44L1068.61 539.744ZM1006.17 550.694L902.561 462.855L901.657 463.923L1005.27 551.761L1006.17 550.694Z" fill="black"/>
<path d="M843.988 518.936L883.926 521.298L887.022 554.825C887.022 554.825 851.986 553.809 830.732 547.161L845.018 540.14L843.988 518.936Z" fill="#EEEEEE" stroke="black" stroke-width="1.39887" stroke-linejoin="round"/>
<rect width="97.773" height="18.3324" rx="2.00878" transform="matrix(0.258819 0.965926 0.965926 -0.258819 830.528 274.538)" fill="#EEEEEE" stroke="black" stroke-width="1.39887"/>
<rect width="97.773" height="18.3324" rx="2.00878" transform="matrix(-1 0 0 1 949.723 359.418)" fill="#00ADB5" stroke="black" stroke-width="1.39887"/>
<path d="M770.952 494.095L775.892 534.877L746.081 543.105C746.081 543.105 740.464 507.966 743.186 485.521L753.031 498.456L770.952 494.095Z" fill="#EEEEEE" stroke="black" stroke-width="1.39887" stroke-linejoin="round"/>
<path d="M918.994 388.615L941.366 351.338L1009.96 388.689C1006.81 345.582 1036.4 283.546 1067.47 287.325C1121.98 293.953 1081.82 428.301 1046.12 451.983C1010.41 475.664 918.994 388.615 918.994 388.615Z" fill="#EEEEEE"/>
<path d="M1089.17 369.777C1080.74 405.124 1062.93 440.829 1046.12 451.983C1010.41 475.664 918.994 388.615 918.994 388.615L941.366 351.338L1009.96 388.689L1033.27 330.2" stroke="black" stroke-width="1.39887"/>
<path d="M937.293 348.51L941.578 351.573L919.038 388.645L912.148 383.734C901.007 375.792 899.94 359.633 909.941 350.296C917.471 343.266 928.913 342.519 937.293 348.51Z" fill="#F5B9AB" stroke="black" stroke-width="1.39887" stroke-linejoin="round"/>
<path d="M88.7998 92.1981C63.1843 92.9165 67.9044 91.9446 47.1801 111.898C42.4468 116.455 35.2901 121.998 33.6682 130.094C31.2748 142.042 45.9256 178.189 55.5174 164.885C61.7163 156.288 60.5223 141.52 51.0924 137.615C35.6279 131.21 23.1944 150.147 18.3869 166.51C13.094 184.526 17.5391 204.234 30.0132 216.263C35.7118 221.758 44.9039 219.27 39.8618 207.599C29.4911 183.596 17.4966 212.714 19.1206 228.661C22.0456 257.385 46.7168 295.119 69.799 289.135C77.0159 287.264 74.657 283.09 71.6284 280.002C68.5553 276.869 60.8279 265.427 62.9025 269.772C66.5294 277.367 71.1307 280.423 76.2708 284.883C82.9006 290.635 68.68 303.205 64.5604 307.692C62.3978 310.047 59.2555 315.322 58.6706 319.164C57.5155 326.748 65.8538 306.931 67.346 299.482" stroke="#00ADB5" stroke-opacity="0.2" stroke-width="5" stroke-linecap="round" stroke-linejoin="round"/>
</svg>
